<svg width="32" height="32" viewBox="0 0 32 32" fill="none" xmlns="http://www.w3.org/2000/svg">
<path d="M16 7.02482L17.455 7.94559C17.7214 8.11434 18.0475 7.86489 17.9773 7.5494L17.5917 5.81791L18.8784 4.65135C19.1133 4.43858 18.987 4.03506 18.6785 4.00938L16.9852 3.85897L16.3225 2.22286C16.2033 1.92571 15.7967 1.92571 15.6775 2.22286L15.0148 3.8553L13.3215 4.00571C13.013 4.03139 12.8867 4.43491 13.1216 4.64768L14.4083 5.81424L14.0227 7.54573C13.9525 7.86122 14.2786 8.11067 14.545 7.94192L16 7.02482Z" fill="#D1D6DC"/>
<path fill-rule="evenodd" clip-rule="evenodd" d="M12 12C12 10.8954 12.8954 10 14 10H18C19.1046 10 20 10.8954 20 12V18.7996H26C27.1046 18.7996 28 19.695 28 20.7996V29.9996H20V30H12V29.9998H4V16.7998C4 15.6952 4.89543 14.7998 6 14.7998H12V12Z" fill="#D1D6DC"/>
</svg>
