<svg width="212" height="147" viewBox="0 0 212 147" fill="none" xmlns="http://www.w3.org/2000/svg">
<path d="M160.981 43.3875C158.041 19.4252 136.233 2.38329 112.27 5.32322L52.2013 12.6931C23.7235 16.1871 3.46998 42.1053 6.96394 70.5832V70.5832C9.56924 91.8181 24.9259 109.284 45.6525 114.587L54.3822 116.82C54.5156 116.854 54.6561 116.8 54.733 116.686L66.6484 99.0018L122.917 92.0982C146.879 89.1583 163.921 67.3498 160.981 43.3875V43.3875Z" fill="#B260F2"/>
<path d="M102.035 93.2726C103.493 75.1397 119.374 61.6218 137.507 63.0796L172.007 65.8532C193.863 67.6104 210.157 86.7531 208.4 108.61V108.61C207.127 124.438 196.546 137.986 181.497 143.054L176.981 144.575C176.881 144.609 176.77 144.571 176.711 144.483L168.121 131.63L132.228 128.745C114.095 127.287 100.577 111.406 102.035 93.2726V93.2726Z" fill="#7C5AF7"/>
<path d="M84.2834 113.312C84.2834 99.8846 73.3988 88.9999 59.9718 88.9999L34.4259 88.9999C18.2417 88.9999 5.12173 102.12 5.12173 118.304V118.304C5.12173 130.025 12.1054 140.618 22.8774 145.237L26.1097 146.623C26.1816 146.653 26.2652 146.632 26.3138 146.571L33.3938 137.623L59.9718 137.623C73.3987 137.623 84.2834 126.738 84.2834 113.312V113.312Z" fill="#B260F2" fill-opacity="0.2"/>
</svg>
