<svg width="311" height="208" viewBox="0 0 311 208" fill="none" xmlns="http://www.w3.org/2000/svg">
<path d="M10.9584 14.8752L14.3334 18.2502L23.3334 9.25015" stroke="#D1D6DC" stroke-width="3" stroke-linecap="round" stroke-linejoin="round"/>
<path d="M23.3334 16V22.75C23.3334 23.3467 23.0963 23.919 22.6744 24.341C22.2524 24.7629 21.6801 25 21.0834 25H7.58337C6.98664 25 6.41434 24.7629 5.99238 24.341C5.57043 23.919 5.33337 23.3467 5.33337 22.75V9.25C5.33337 8.65326 5.57043 8.08097 5.99238 7.65901C6.41434 7.23705 6.98664 7 7.58337 7H17.7084" stroke="#D1D6DC" stroke-width="3" stroke-linecap="round" stroke-linejoin="round"/>
<path d="M42.501 12.4883H36.4238V11.4424H42.501V12.4883ZM39.4727 13.2197C39.9876 13.2197 40.4456 13.3405 40.8467 13.582C41.2523 13.819 41.569 14.1517 41.7969 14.5801C42.0247 15.0085 42.1387 15.4984 42.1387 16.0498C42.1387 16.5967 42.0247 17.0866 41.7969 17.5195C41.569 17.9479 41.2523 18.2852 40.8467 18.5312C40.4456 18.7773 39.9876 18.9004 39.4727 18.9004C38.9622 18.9004 38.5042 18.7773 38.0986 18.5312C37.6976 18.2852 37.3831 17.9456 37.1553 17.5127C36.932 17.0798 36.8203 16.5921 36.8203 16.0498C36.8203 15.5075 36.932 15.0199 37.1553 14.5869C37.3831 14.154 37.6976 13.819 38.0986 13.582C38.5042 13.3405 38.9622 13.2197 39.4727 13.2197ZM39.4727 14.3066C39.1855 14.3066 38.9258 14.3818 38.6934 14.5322C38.4655 14.6781 38.2878 14.8831 38.1602 15.1475C38.0326 15.4072 37.9688 15.708 37.9688 16.0498C37.9688 16.387 38.0326 16.6878 38.1602 16.9521C38.2923 17.2165 38.4723 17.4193 38.7002 17.5605C38.9281 17.7018 39.1855 17.7725 39.4727 17.7725C39.7643 17.7725 40.0241 17.7018 40.252 17.5605C40.4844 17.4193 40.6667 17.2165 40.7988 16.9521C40.931 16.6878 40.9971 16.387 40.9971 16.0498C40.9971 15.708 40.931 15.4072 40.7988 15.1475C40.6667 14.8831 40.4844 14.6781 40.252 14.5322C40.0241 14.3818 39.7643 14.3066 39.4727 14.3066ZM46.9375 21.6553H45.7002V9.40527H46.9375V21.6553ZM46.1104 15.5713H43.8682V14.5117H46.1104V15.5713ZM44.292 21.0811H43.0684V9.69238H44.292V21.0811ZM40.1221 12.0918H38.8369V9.76758H40.1221V12.0918ZM58.1895 16.6514H56.8838V9.40527H58.1895V16.6514ZM59.96 13.582H57.8135V12.5088H59.96V13.582ZM54.2178 16.877C55.0472 16.877 55.7673 16.9704 56.3779 17.1572C56.9932 17.3441 57.4648 17.6152 57.793 17.9707C58.1211 18.3262 58.2852 18.7523 58.2852 19.249C58.2852 19.7458 58.1211 20.1742 57.793 20.5342C57.4648 20.8942 56.9954 21.1676 56.3848 21.3545C55.7786 21.5459 55.0563 21.6416 54.2178 21.6416C53.3747 21.6416 52.6455 21.5459 52.0303 21.3545C51.4196 21.1676 50.9456 20.8942 50.6084 20.5342C50.2757 20.1742 50.1094 19.7458 50.1094 19.249C50.1094 18.7523 50.2757 18.3262 50.6084 17.9707C50.9456 17.6152 51.4219 17.3441 52.0371 17.1572C52.6569 16.9704 53.3838 16.877 54.2178 16.877ZM54.2178 17.9297C53.639 17.9206 53.1354 17.9684 52.707 18.0732C52.2786 18.1781 51.9505 18.3307 51.7227 18.5312C51.4993 18.7318 51.3877 18.971 51.3877 19.249C51.3877 19.5225 51.4993 19.764 51.7227 19.9736C51.9505 20.1787 52.2786 20.3359 52.707 20.4453C53.1354 20.5501 53.639 20.6025 54.2178 20.6025C54.7965 20.6025 55.2956 20.5501 55.7148 20.4453C56.1387 20.3359 56.4645 20.1787 56.6924 19.9736C56.9202 19.764 57.0342 19.5225 57.0342 19.249C57.0342 18.971 56.9202 18.7318 56.6924 18.5312C56.4645 18.3307 56.1387 18.1781 55.7148 18.0732C55.2956 17.9684 54.7965 17.9206 54.2178 17.9297ZM50.0479 14.71C51.4333 14.7008 52.527 14.6712 53.3291 14.6211C54.1312 14.5664 54.915 14.4593 55.6807 14.2998L55.8037 15.3525C55.0199 15.5166 54.2155 15.626 53.3906 15.6807C52.5703 15.7308 51.4561 15.7559 50.0479 15.7559H49.0703V14.71H50.0479ZM54.5391 11.3672H50.3486V15.4141H49.0703V10.3076H54.5391V11.3672ZM73.4404 13.2812H70.3984V12.208H73.4404V13.2812ZM68.1494 11.6201C68.1494 12.4176 68.0127 13.165 67.7393 13.8623C67.4658 14.5596 67.0739 15.168 66.5635 15.6875C66.0576 16.2025 65.4515 16.599 64.7451 16.877L64.0479 15.8311C64.6722 15.6032 65.2122 15.2773 65.668 14.8535C66.1283 14.4251 66.4814 13.9329 66.7275 13.377C66.9782 12.8164 67.1035 12.2308 67.1035 11.6201V10.1641H68.1494V11.6201ZM68.3887 11.6475C68.3887 12.208 68.5072 12.748 68.7441 13.2676C68.9857 13.7826 69.3298 14.2406 69.7764 14.6416C70.223 15.0381 70.7471 15.3457 71.3486 15.5645L70.6309 16.5762C69.9655 16.3118 69.3867 15.9359 68.8945 15.4482C68.4023 14.9561 68.0218 14.3841 67.7529 13.7324C67.4886 13.0807 67.3564 12.3857 67.3564 11.6475V10.1641H68.3887V11.6475ZM74.2812 18.5518H72.9824V9.41895H74.2812V18.5518ZM74.5547 21.416H66.2764V20.3428H74.5547V21.416ZM67.5889 20.8623H66.2764V17.54H67.5889V20.8623ZM86.292 10.7793H77.1934V9.77441H86.292V10.7793ZM86.2373 13.8828H77.248V12.8848H86.2373V13.8828ZM80.2695 13.5479H78.9775V10.1572H80.2695V13.5479ZM84.5078 13.5479H83.209V10.1572H84.5078V13.5479ZM87.3379 15.8105H76.168V14.7783H87.3379V15.8105ZM85.9229 19.5635H78.7998V20.9443H77.5215V18.6475H84.6514V17.7314H77.501V16.7744H85.9229V19.5635ZM86.2783 21.5391H77.5215V20.5615H86.2783V21.5391ZM98.4189 21.6895H97.1133V9.40527H98.4189V21.6895ZM91.8564 10.3281C92.4671 10.3281 93.0117 10.5059 93.4902 10.8613C93.9688 11.2168 94.3424 11.7181 94.6113 12.3652C94.8802 13.0124 95.0146 13.7666 95.0146 14.6279C95.0146 15.4938 94.8802 16.2503 94.6113 16.8975C94.3424 17.5446 93.9688 18.0459 93.4902 18.4014C93.0117 18.7523 92.4671 18.9277 91.8564 18.9277C91.2458 18.9277 90.6989 18.7523 90.2158 18.4014C89.7373 18.0459 89.3636 17.5446 89.0947 16.8975C88.8258 16.2503 88.6914 15.4938 88.6914 14.6279C88.6914 13.7666 88.8258 13.0124 89.0947 12.3652C89.3636 11.7181 89.7373 11.2168 90.2158 10.8613C90.6989 10.5059 91.2458 10.3281 91.8564 10.3281ZM91.8564 11.4902C91.4827 11.4902 91.1501 11.6178 90.8584 11.873C90.5667 12.1283 90.3411 12.4928 90.1816 12.9668C90.0267 13.4362 89.9492 13.9899 89.9492 14.6279C89.9492 15.2614 90.0267 15.8151 90.1816 16.2891C90.3411 16.763 90.5667 17.1276 90.8584 17.3828C91.1501 17.6335 91.4827 17.7588 91.8564 17.7588C92.2301 17.7588 92.5605 17.6335 92.8477 17.3828C93.1393 17.1276 93.3649 16.763 93.5244 16.2891C93.6839 15.8151 93.7637 15.2614 93.7637 14.6279C93.7637 13.9899 93.6839 13.4362 93.5244 12.9668C93.3649 12.4928 93.1416 12.1283 92.8545 11.873C92.5674 11.6178 92.2347 11.4902 91.8564 11.4902ZM114.996 20.1309H103.785V19.0576H114.996V20.1309ZM109.999 19.3447H108.728V16.002H109.999V19.3447ZM113.656 16.2275H105.063V10.3965H113.656V16.2275ZM106.342 15.2021H112.392V11.4355H106.342V15.2021ZM125.694 14.9492H117.382V13.9238H125.694V14.9492ZM127.082 17.4922H115.871V16.4463H127.082V17.4922ZM122.085 21.6211H120.807V17.0273H122.085V21.6211ZM125.544 11.1689H118.708V14.4092H117.382V10.1094H125.544V11.1689ZM142.613 20.1377H131.402V19.0713H142.613V20.1377ZM137.616 19.3721H136.345V16.2139H137.616V19.3721ZM133.986 12.3584H140.002V10.2461H141.28V16.5557H132.681V10.2461H133.986V12.3584ZM140.002 15.5029V13.4043H133.986V15.5029H140.002ZM152.703 13.1445H149.053V12.0713H152.703V13.1445ZM152.703 16.9863H149.053V15.9268H152.703V16.9863ZM146.824 10.3281C147.426 10.3281 147.959 10.5059 148.424 10.8613C148.893 11.2168 149.26 11.7181 149.524 12.3652C149.789 13.0124 149.921 13.7666 149.921 14.6279C149.921 15.4938 149.789 16.2503 149.524 16.8975C149.26 17.5446 148.893 18.0459 148.424 18.4014C147.959 18.7523 147.426 18.9277 146.824 18.9277C146.223 18.9277 145.685 18.7523 145.211 18.4014C144.742 18.0505 144.375 17.5514 144.11 16.9043C143.846 16.2526 143.714 15.4938 143.714 14.6279C143.714 13.7666 143.846 13.0124 144.11 12.3652C144.375 11.7181 144.742 11.2168 145.211 10.8613C145.685 10.5059 146.223 10.3281 146.824 10.3281ZM146.824 11.4902C146.46 11.4902 146.134 11.6178 145.847 11.873C145.56 12.1283 145.339 12.4928 145.184 12.9668C145.033 13.4362 144.958 13.9899 144.958 14.6279C144.958 15.2614 145.033 15.8151 145.184 16.2891C145.339 16.763 145.56 17.1276 145.847 17.3828C146.134 17.6335 146.46 17.7588 146.824 17.7588C147.189 17.7588 147.515 17.6335 147.802 17.3828C148.089 17.1276 148.31 16.763 148.465 16.2891C148.62 15.8151 148.697 15.2614 148.697 14.6279C148.697 13.9899 148.618 13.4362 148.458 12.9668C148.303 12.4928 148.084 12.1283 147.802 11.873C147.524 11.6178 147.198 11.4902 146.824 11.4902ZM153.722 21.6895H152.43V9.40527H153.722V21.6895ZM159.86 13.0215C159.86 13.901 159.708 14.7624 159.402 15.6055C159.097 16.444 158.678 17.1914 158.145 17.8477C157.611 18.4993 157.007 18.9893 156.333 19.3174L155.567 18.2988C156.174 18.0072 156.723 17.5811 157.215 17.0205C157.707 16.4554 158.092 15.8242 158.37 15.127C158.653 14.4251 158.794 13.7233 158.794 13.0215V11.2031H159.86V13.0215ZM160.106 13.0215C160.106 13.696 160.243 14.3659 160.517 15.0312C160.795 15.6966 161.18 16.2891 161.672 16.8086C162.169 17.3281 162.727 17.7223 163.347 17.9912L162.629 19.0098C161.936 18.6999 161.319 18.2396 160.776 17.6289C160.239 17.0182 159.819 16.3141 159.519 15.5166C159.222 14.7191 159.074 13.8874 159.074 13.0215V11.2031H160.106V13.0215ZM162.909 11.7158H155.998V10.6494H162.909V11.7158ZM165.753 21.6553H164.447V9.40527H165.753V21.6553ZM178.229 21.6553H176.998V9.40527H178.229V21.6553ZM174.735 15.3799H171.748V14.334H174.735V15.3799ZM175.645 21.0674H174.414V9.71973H175.645V21.0674ZM173.013 10.9365C173.013 12.0713 172.858 13.1309 172.548 14.1152C172.243 15.0951 171.748 16.002 171.064 16.8359C170.381 17.6699 169.494 18.4059 168.405 19.0439L167.66 18.1143C168.608 17.5537 169.385 16.9225 169.991 16.2207C170.597 15.5143 171.044 14.7441 171.331 13.9102C171.618 13.0716 171.762 12.1624 171.762 11.1826V10.9365H173.013ZM172.22 11.9961H168.234V10.9365H172.22V11.9961ZM188.688 10.1572C188.688 11.1644 188.519 12.0736 188.182 12.8848C187.849 13.696 187.329 14.4115 186.623 15.0312C185.921 15.651 185.017 16.1751 183.909 16.6035L183.308 15.6465C184.26 15.2956 185.042 14.8717 185.652 14.375C186.263 13.8783 186.71 13.3132 186.992 12.6797C187.279 12.0462 187.423 11.3421 187.423 10.5674V10.1572H188.688ZM187.847 11.2236H183.868V10.1572H187.847V11.2236ZM183.492 13.6504L183.301 12.584L187.361 12.3242V13.2471L183.492 13.6504ZM193.664 16.2207H192.427V9.41895H193.664V16.2207ZM192.83 13.3975H190.581V12.3447H192.83V13.3975ZM190.957 16.1113H189.72V9.64453H190.957V16.1113ZM186.794 18.0322H192.386V16.7334H193.664V21.5049H185.488V16.7334H186.794V18.0322ZM192.386 20.4727V19.0645H186.794V20.4727H192.386ZM205.524 21.6895H204.239V9.40527H205.524V21.6895ZM205.039 14.2998H201.854V13.2266H205.039V14.2998ZM205.039 16.8428H201.854V15.7764H205.039V16.8428ZM199.42 13.3496C199.42 14.2018 199.279 15.0267 198.996 15.8242C198.714 16.6172 198.317 17.319 197.807 17.9297C197.296 18.5404 196.706 19.0029 196.036 19.3174L195.318 18.3125C195.929 18.0254 196.467 17.6221 196.932 17.1025C197.396 16.583 197.754 15.9951 198.005 15.3389C198.26 14.6826 198.388 14.0195 198.388 13.3496V12.3857H199.42V13.3496ZM199.673 13.3496C199.673 13.9967 199.803 14.6348 200.062 15.2637C200.322 15.8926 200.689 16.4577 201.163 16.959C201.637 17.4557 202.179 17.8431 202.79 18.1211L202.065 19.126C201.386 18.8161 200.789 18.3672 200.274 17.7793C199.759 17.1868 199.358 16.5055 199.071 15.7354C198.789 14.9652 198.647 14.1699 198.647 13.3496V12.3857H199.673V13.3496ZM202.353 12.543H195.674V11.4971H202.353V12.543ZM199.687 12.0645H198.395V9.65137H199.687V12.0645ZM218.615 16.0293H207.404V15.0312H218.615V16.0293ZM217.234 19.584H210.043V20.9102H208.744V18.7227H215.949V17.8203H208.73V16.877H217.234V19.584ZM217.617 21.5117H208.744V20.5957H217.617V21.5117ZM217.2 12.3789H210.132V13.6162H208.847V11.5176H215.901V10.6426H208.812V9.72656H217.2V12.3789ZM217.419 14.2246H208.847V13.3154H217.419V14.2246ZM228.985 12.4883H222.908V11.4424H228.985V12.4883ZM225.957 13.2197C226.472 13.2197 226.93 13.3405 227.331 13.582C227.737 13.819 228.053 14.1517 228.281 14.5801C228.509 15.0085 228.623 15.4984 228.623 16.0498C228.623 16.5967 228.509 17.0866 228.281 17.5195C228.053 17.9479 227.737 18.2852 227.331 18.5312C226.93 18.7773 226.472 18.9004 225.957 18.9004C225.447 18.9004 224.989 18.7773 224.583 18.5312C224.182 18.2852 223.868 17.9456 223.64 17.5127C223.416 17.0798 223.305 16.5921 223.305 16.0498C223.305 15.5075 223.416 15.0199 223.64 14.5869C223.868 14.154 224.182 13.819 224.583 13.582C224.989 13.3405 225.447 13.2197 225.957 13.2197ZM225.957 14.3066C225.67 14.3066 225.41 14.3818 225.178 14.5322C224.95 14.6781 224.772 14.8831 224.645 15.1475C224.517 15.4072 224.453 15.708 224.453 16.0498C224.453 16.387 224.517 16.6878 224.645 16.9521C224.777 17.2165 224.957 17.4193 225.185 17.5605C225.412 17.7018 225.67 17.7725 225.957 17.7725C226.249 17.7725 226.508 17.7018 226.736 17.5605C226.969 17.4193 227.151 17.2165 227.283 16.9521C227.415 16.6878 227.481 16.387 227.481 16.0498C227.481 15.708 227.415 15.4072 227.283 15.1475C227.151 14.8831 226.969 14.6781 226.736 14.5322C226.508 14.3818 226.249 14.3066 225.957 14.3066ZM233.422 21.6553H232.185V9.40527H233.422V21.6553ZM232.595 15.5713H230.353V14.5117H232.595V15.5713ZM230.776 21.0811H229.553V9.69238H230.776V21.0811ZM226.606 12.0918H225.321V9.76758H226.606V12.0918ZM241.017 11.1416C241.017 11.848 240.798 12.4974 240.36 13.0898C239.923 13.6823 239.337 14.1768 238.604 14.5732C237.87 14.9697 237.054 15.2386 236.156 15.3799L235.657 14.3613C236.423 14.252 237.129 14.0378 237.776 13.7188C238.424 13.3997 238.936 13.0146 239.314 12.5635C239.693 12.1123 239.882 11.6383 239.882 11.1416V10.6699H241.017V11.1416ZM241.358 11.1416C241.358 11.6383 241.545 12.1123 241.919 12.5635C242.297 13.0146 242.81 13.3997 243.457 13.7188C244.109 14.0378 244.817 14.252 245.583 14.3613L245.111 15.3799C244.209 15.2386 243.386 14.972 242.644 14.5801C241.905 14.1882 241.317 13.6937 240.88 13.0967C240.447 12.4997 240.23 11.848 240.23 11.1416V10.6699H241.358V11.1416ZM241.235 21.6621H239.957V17.0342H241.235V21.6621ZM246.205 17.376H235.035V16.3164H246.205V17.376ZM245.159 11.1758H236.067V10.1367H245.159V11.1758ZM254.299 14.7988H252.002V13.7119H254.299V14.7988ZM250.628 12.8096C250.628 13.6891 250.516 14.5391 250.293 15.3594C250.074 16.1797 249.751 16.9134 249.322 17.5605C248.894 18.2031 248.379 18.709 247.777 19.0781L246.964 18.1074C247.524 17.7702 248.005 17.3213 248.406 16.7607C248.807 16.1956 249.108 15.5736 249.309 14.8945C249.514 14.2155 249.616 13.5205 249.616 12.8096V10.5264H250.628V12.8096ZM250.867 12.7549C250.867 13.4339 250.961 14.097 251.147 14.7441C251.334 15.3867 251.612 15.9769 251.981 16.5146C252.355 17.0524 252.804 17.4831 253.328 17.8066L252.604 18.8047C252.011 18.4492 251.512 17.9548 251.106 17.3213C250.701 16.6833 250.396 15.9746 250.19 15.1953C249.99 14.416 249.89 13.6025 249.89 12.7549V10.5264H250.867V12.7549ZM257.676 21.6553H256.425V9.40527H257.676V21.6553ZM255.133 21.0537H253.909V9.6377H255.133V21.0537ZM263.199 19.29H261.921V15.7012H263.199V19.29ZM267.766 19.29H266.46V15.7012H267.766V19.29ZM270.445 20.1309H259.234V19.0576H270.445V20.1309ZM264.819 10.1162C265.694 10.1162 266.474 10.2507 267.157 10.5195C267.841 10.7839 268.374 11.1598 268.757 11.6475C269.144 12.1305 269.338 12.6865 269.338 13.3154C269.338 13.9489 269.144 14.5072 268.757 14.9902C268.374 15.4688 267.841 15.8424 267.157 16.1113C266.474 16.3757 265.694 16.5078 264.819 16.5078C263.949 16.5078 263.17 16.3757 262.481 16.1113C261.798 15.8424 261.262 15.4688 260.875 14.9902C260.488 14.5072 260.294 13.9489 260.294 13.3154C260.294 12.6865 260.488 12.1305 260.875 11.6475C261.262 11.1598 261.798 10.7839 262.481 10.5195C263.17 10.2507 263.949 10.1162 264.819 10.1162ZM264.819 11.1689C264.181 11.1644 263.616 11.251 263.124 11.4287C262.636 11.6019 262.254 11.8525 261.976 12.1807C261.702 12.5042 261.565 12.8825 261.565 13.3154C261.565 13.7484 261.702 14.1289 261.976 14.457C262.254 14.7852 262.639 15.0404 263.131 15.2227C263.623 15.4049 264.186 15.4961 264.819 15.4961C265.448 15.4961 266.009 15.4049 266.501 15.2227C266.993 15.0404 267.378 14.7852 267.656 14.457C267.934 14.1289 268.073 13.7484 268.073 13.3154C268.073 12.8825 267.934 12.5042 267.656 12.1807C267.383 11.8525 267 11.6019 266.508 11.4287C266.016 11.251 265.453 11.1644 264.819 11.1689ZM272.729 20.5957C272.555 20.5957 272.394 20.5501 272.243 20.459C272.093 20.3678 271.974 20.2493 271.888 20.1035C271.806 19.9531 271.765 19.7913 271.765 19.6182C271.765 19.4495 271.806 19.29 271.888 19.1396C271.974 18.9893 272.093 18.873 272.243 18.791C272.394 18.7044 272.555 18.6611 272.729 18.6611C272.897 18.6611 273.057 18.7044 273.207 18.791C273.357 18.873 273.476 18.9893 273.562 19.1396C273.649 19.29 273.692 19.4495 273.692 19.6182C273.692 19.7913 273.649 19.9531 273.562 20.1035C273.476 20.2493 273.357 20.3678 273.207 20.459C273.057 20.5501 272.897 20.5957 272.729 20.5957Z" fill="#0B0033"/>
<path d="M10.9584 58.8752L14.3334 62.2502L23.3334 53.2502" stroke="#D1D6DC" stroke-width="3" stroke-linecap="round" stroke-linejoin="round"/>
<path d="M23.3334 60V66.75C23.3334 67.3467 23.0963 67.919 22.6744 68.341C22.2524 68.7629 21.6801 69 21.0834 69H7.58337C6.98664 69 6.41434 68.7629 5.99238 68.341C5.57043 67.919 5.33337 67.3467 5.33337 66.75V53.25C5.33337 52.6533 5.57043 52.081 5.99238 51.659C6.41434 51.2371 6.98664 51 7.58337 51H17.7084" stroke="#D1D6DC" stroke-width="3" stroke-linecap="round" stroke-linejoin="round"/>
<path d="M40.4639 57.0215C40.4639 57.8874 40.3135 58.7441 40.0127 59.5918C39.7165 60.4349 39.304 61.1846 38.7754 61.8408C38.2467 62.4971 37.6543 62.9893 36.998 63.3174L36.2188 62.2988C36.8294 62.0026 37.3786 61.5719 37.8662 61.0068C38.3538 60.4372 38.7367 59.8037 39.0146 59.1064C39.2972 58.4046 39.4385 57.7096 39.4385 57.0215V55.2031H40.4639V57.0215ZM40.7236 57.0215C40.7236 57.6686 40.8535 58.3203 41.1133 58.9766C41.3776 59.6283 41.7467 60.223 42.2207 60.7607C42.6992 61.2985 43.2415 61.7087 43.8477 61.9912L43.1162 63.0098C42.4508 62.6953 41.8584 62.2259 41.3389 61.6016C40.8193 60.9727 40.4137 60.2594 40.1221 59.4619C39.835 58.6598 39.6914 57.8464 39.6914 57.0215V55.2031H40.7236V57.0215ZM43.3828 55.7158H36.6768V54.6494H43.3828V55.7158ZM45.9941 65.6553H44.7021V53.4053H45.9941V65.6553ZM47.9697 59.3662H45.7002V58.2725H47.9697V59.3662ZM58.709 62.3945H57.417V53.4189H58.709V62.3945ZM59.0781 65.416H50.7041V64.3428H59.0781V65.416ZM52.0029 64.8828H50.7041V61.5469H52.0029V64.8828ZM52.7617 55.3125C52.7617 56.1146 52.6204 56.8711 52.3379 57.582C52.0599 58.2884 51.6611 58.9082 51.1416 59.4414C50.6221 59.9746 50.0114 60.3779 49.3096 60.6514L48.6191 59.6328C49.248 59.4004 49.7949 59.0632 50.2598 58.6211C50.7246 58.1745 51.0778 57.6663 51.3193 57.0967C51.5609 56.5225 51.6816 55.9277 51.6816 55.3125V54.1025H52.7617V55.3125ZM53.0146 55.3125C53.0146 55.9049 53.1331 56.4723 53.3701 57.0146C53.6071 57.5524 53.9557 58.0309 54.416 58.4502C54.8763 58.8649 55.4118 59.1816 56.0225 59.4004L55.3525 60.4326C54.6462 60.1683 54.0355 59.7878 53.5205 59.291C53.0101 58.7897 52.6159 58.1995 52.3379 57.5205C52.0599 56.8369 51.9209 56.1009 51.9209 55.3125V54.1025H53.0146V55.3125ZM64.6494 54.2734C65.292 54.2734 65.8639 54.3988 66.3652 54.6494C66.8665 54.8955 67.2585 55.2419 67.541 55.6885C67.8281 56.1305 67.9717 56.6341 67.9717 57.1992C67.9717 57.7643 67.8281 58.2702 67.541 58.7168C67.2585 59.1589 66.8665 59.5052 66.3652 59.7559C65.8639 60.002 65.292 60.125 64.6494 60.125C64.0114 60.125 63.4372 60.002 62.9268 59.7559C62.4163 59.5052 62.0176 59.1589 61.7305 58.7168C61.4479 58.2702 61.3066 57.7643 61.3066 57.1992C61.3066 56.6341 61.4479 56.1305 61.7305 55.6885C62.0176 55.2419 62.4163 54.8955 62.9268 54.6494C63.4372 54.3988 64.0114 54.2734 64.6494 54.2734ZM64.6494 55.4082C64.2529 55.4082 63.8975 55.4811 63.583 55.627C63.2731 55.7728 63.0293 55.9824 62.8516 56.2559C62.6738 56.5293 62.585 56.8438 62.585 57.1992C62.585 57.5547 62.6738 57.8669 62.8516 58.1357C63.0293 58.4046 63.2731 58.6143 63.583 58.7646C63.8975 58.915 64.2529 58.9902 64.6494 58.9902C65.0459 58.9902 65.3991 58.915 65.709 58.7646C66.0234 58.6143 66.2673 58.4046 66.4404 58.1357C66.6182 57.8669 66.707 57.5547 66.707 57.1992C66.707 56.8438 66.6182 56.5293 66.4404 56.2559C66.2673 55.9824 66.0234 55.7728 65.709 55.627C65.3991 55.4811 65.0459 55.4082 64.6494 55.4082ZM70.7812 65.6895H69.4893V53.4053H70.7812V65.6895ZM60.7119 61.9707C61.7236 61.9661 62.6396 61.9548 63.46 61.9365C64.2848 61.9183 65.1598 61.8818 66.085 61.8271C67.0146 61.7679 67.8919 61.679 68.7168 61.5605L68.8125 62.5107C67.9603 62.6657 67.0739 62.7842 66.1533 62.8662C65.2373 62.9437 64.376 62.9938 63.5693 63.0166C62.7627 63.0394 61.8672 63.0508 60.8828 63.0508L60.7119 61.9707ZM83.626 57.8281H80.9531V56.7617H83.626V57.8281ZM83.6055 60.8906H80.8711V59.8311H83.6055V60.8906ZM86.6953 65.6553H85.4648V53.4053H86.6953V65.6553ZM84.1934 65.0674H82.9561V53.7197H84.1934V65.0674ZM81.4658 54.9365C81.4658 56.0713 81.3109 57.1286 81.001 58.1084C80.6911 59.0837 80.1966 59.9883 79.5176 60.8223C78.8431 61.6562 77.9613 62.3968 76.8721 63.0439L76.0928 62.1143C77.0407 61.5537 77.8177 60.9225 78.4238 60.2207C79.0345 59.5143 79.4834 58.7441 79.7705 57.9102C80.0622 57.0716 80.208 56.1624 80.208 55.1826V54.9365H81.4658ZM80.6865 55.9961H76.7012V54.9365H80.6865V55.9961ZM97.5508 57.5957H94.9053V56.5293H97.5508V57.5957ZM98.4805 60.6992H97.1816V53.4053H98.4805V60.6992ZM94.3721 61.0479C95.2334 61.0479 95.974 61.139 96.5938 61.3213C97.2181 61.5036 97.6943 61.7679 98.0225 62.1143C98.3551 62.4561 98.5215 62.8685 98.5215 63.3516C98.5215 63.8346 98.3551 64.2471 98.0225 64.5889C97.6943 64.9352 97.2181 65.1995 96.5938 65.3818C95.974 65.5641 95.2334 65.6576 94.3721 65.6621C93.5199 65.6576 92.7839 65.5641 92.1641 65.3818C91.5443 65.1995 91.068 64.9352 90.7354 64.5889C90.4027 64.2471 90.2363 63.8346 90.2363 63.3516C90.2363 62.8685 90.4027 62.4561 90.7354 62.1143C91.068 61.7679 91.5443 61.5036 92.1641 61.3213C92.7839 61.139 93.5199 61.0479 94.3721 61.0479ZM94.3721 62.0459C93.7842 62.0459 93.2738 62.0983 92.8408 62.2031C92.4124 62.3034 92.0843 62.4515 91.8564 62.6475C91.6331 62.8434 91.5215 63.0781 91.5215 63.3516C91.5215 63.6159 91.6331 63.846 91.8564 64.042C92.0843 64.238 92.4124 64.3883 92.8408 64.4932C93.2738 64.5934 93.7842 64.6436 94.3721 64.6436C94.9736 64.6436 95.4863 64.5934 95.9102 64.4932C96.3385 64.3883 96.6644 64.238 96.8877 64.042C97.1156 63.846 97.2295 63.6159 97.2295 63.3516C97.2295 63.0781 97.1156 62.8434 96.8877 62.6475C96.6644 62.4515 96.3385 62.3034 95.9102 62.2031C95.4863 62.0983 94.9736 62.0459 94.3721 62.0459ZM92.4033 55.5928C92.4033 56.3447 92.262 57.0557 91.9795 57.7256C91.7015 58.3955 91.3027 58.9834 90.7832 59.4893C90.2637 59.9906 89.6553 60.3711 88.958 60.6309L88.2812 59.5918C88.901 59.373 89.4411 59.0563 89.9014 58.6416C90.3662 58.2269 90.7217 57.7552 90.9678 57.2266C91.2139 56.6934 91.3369 56.1488 91.3369 55.5928V54.6426H92.4033V55.5928ZM92.6494 55.5791C92.6494 56.0941 92.7679 56.5954 93.0049 57.083C93.2419 57.5661 93.5837 57.999 94.0303 58.3818C94.4769 58.7601 95.001 59.054 95.6025 59.2637L94.9395 60.2959C94.2513 60.0544 93.6566 59.6966 93.1553 59.2227C92.654 58.7487 92.2689 58.1973 92 57.5684C91.7311 56.9349 91.5967 56.2718 91.5967 55.5791V54.6426H92.6494V55.5791ZM95.2881 55.3193H88.6709V54.2461H95.2881V55.3193ZM105.952 54.1504C106.809 54.1504 107.579 54.2939 108.263 54.5811C108.951 54.8636 109.491 55.2646 109.883 55.7842C110.275 56.2992 110.471 56.8916 110.471 57.5615C110.471 58.236 110.275 58.8353 109.883 59.3594C109.491 59.8789 108.951 60.2799 108.263 60.5625C107.579 60.8405 106.809 60.9795 105.952 60.9795C105.1 60.9795 104.33 60.8405 103.642 60.5625C102.958 60.2799 102.418 59.8789 102.021 59.3594C101.625 58.8353 101.427 58.236 101.427 57.5615C101.427 56.8916 101.625 56.2969 102.021 55.7773C102.418 55.2578 102.958 54.8568 103.642 54.5742C104.33 54.2917 105.1 54.1504 105.952 54.1504ZM105.952 55.2031C105.328 55.194 104.767 55.2897 104.271 55.4902C103.774 55.6862 103.384 55.9665 103.102 56.3311C102.819 56.6911 102.678 57.1012 102.678 57.5615C102.678 58.0309 102.819 58.4456 103.102 58.8057C103.384 59.1611 103.774 59.4368 104.271 59.6328C104.767 59.8288 105.328 59.9268 105.952 59.9268C106.572 59.9268 107.128 59.8288 107.62 59.6328C108.112 59.4368 108.5 59.1611 108.782 58.8057C109.065 58.4456 109.206 58.0309 109.206 57.5615C109.206 57.1012 109.065 56.6911 108.782 56.3311C108.5 55.9665 108.112 55.6862 107.62 55.4902C107.128 55.2897 106.572 55.194 105.952 55.2031ZM111.578 64.0762H100.367V63.0098H111.578V64.0762ZM123.678 64.1924H112.467V63.1191H123.678V64.1924ZM118.681 63.5771H117.409V60.5898H118.681V63.5771ZM122.304 58.1016H115.126V60.4531H113.834V57.0625H121.025V55.3398H113.813V54.2803H122.304V58.1016ZM122.591 60.959H113.834V59.8926H122.591V60.959ZM132.018 55.6064C132.018 56.3538 131.879 57.0579 131.601 57.7188C131.327 58.375 130.933 58.9447 130.418 59.4277C129.903 59.9108 129.292 60.2777 128.586 60.5283L127.896 59.5234C128.52 59.3047 129.062 58.9948 129.522 58.5938C129.987 58.1927 130.345 57.7347 130.596 57.2197C130.846 56.7002 130.972 56.1624 130.972 55.6064V54.6699H132.018V55.6064ZM132.257 55.6064C132.257 56.1305 132.375 56.6364 132.612 57.124C132.849 57.6071 133.189 58.0378 133.631 58.416C134.077 58.7943 134.606 59.0882 135.217 59.2979L134.561 60.3027C133.868 60.0612 133.269 59.708 132.763 59.2432C132.257 58.7738 131.869 58.2292 131.601 57.6094C131.336 56.985 131.204 56.3174 131.204 55.6064V54.6699H132.257V55.6064ZM134.909 55.2715H128.271V54.2256H134.909V55.2715ZM137.609 60.7949H136.317V53.4053H137.609V60.7949ZM139.394 57.6504H137.247V56.5566H139.394V57.6504ZM137.609 65.6553H136.317V62.4492H129.516V61.4033H137.609V65.6553ZM144.199 55.3057C144.199 56.1032 144.06 56.846 143.782 57.5342C143.509 58.2178 143.112 58.8148 142.593 59.3252C142.073 59.8311 141.456 60.2184 140.74 60.4873L140.036 59.4346C140.679 59.2158 141.235 58.8991 141.704 58.4844C142.174 58.0697 142.531 57.5889 142.777 57.042C143.023 56.4951 143.146 55.9163 143.146 55.3057V54.0889H144.199V55.3057ZM144.438 55.2441C144.438 55.8138 144.555 56.3561 144.787 56.8711C145.024 57.3861 145.366 57.8372 145.812 58.2246C146.259 58.6074 146.788 58.8991 147.398 59.0996L146.681 60.1113C145.997 59.8607 145.409 59.4984 144.917 59.0244C144.425 58.5505 144.044 57.9922 143.775 57.3496C143.511 56.7025 143.379 56.0007 143.379 55.2441V54.0889H144.438V55.2441ZM150.297 60.6377H148.998V53.4053H150.297V60.6377ZM146.188 60.9863C147.05 60.9863 147.79 61.0775 148.41 61.2598C149.035 61.4375 149.511 61.7041 149.839 62.0596C150.172 62.4105 150.338 62.832 150.338 63.3242C150.338 63.8073 150.172 64.222 149.839 64.5684C149.511 64.9193 149.035 65.1859 148.41 65.3682C147.79 65.5505 147.05 65.6416 146.188 65.6416C145.336 65.6416 144.6 65.5505 143.98 65.3682C143.361 65.1859 142.884 64.9193 142.552 64.5684C142.219 64.222 142.053 63.8073 142.053 63.3242C142.053 62.832 142.219 62.4105 142.552 62.0596C142.884 61.7041 143.361 61.4375 143.98 61.2598C144.6 61.0775 145.336 60.9863 146.188 60.9863ZM146.188 61.998C145.601 61.998 145.09 62.0505 144.657 62.1553C144.229 62.2555 143.901 62.4059 143.673 62.6064C143.45 62.8024 143.338 63.0417 143.338 63.3242C143.338 63.5885 143.45 63.8187 143.673 64.0146C143.901 64.2061 144.229 64.3542 144.657 64.459C145.09 64.5638 145.601 64.6162 146.188 64.6162C146.79 64.6162 147.303 64.5638 147.727 64.459C148.155 64.3542 148.481 64.2061 148.704 64.0146C148.932 63.8187 149.046 63.5885 149.046 63.3242C149.046 63.0417 148.932 62.8024 148.704 62.6064C148.481 62.4059 148.155 62.2555 147.727 62.1553C147.303 62.0505 146.79 61.998 146.188 61.998ZM149.23 56.9736H146.414V55.9072H149.23V56.9736ZM161.809 62.5859H160.517V53.4189H161.809V62.5859ZM163.593 58.4365H161.412V57.3633H163.593V58.4365ZM159.491 55.8867H152.197V54.8477H159.491V55.8867ZM155.848 56.4814C156.431 56.4814 156.946 56.5771 157.393 56.7686C157.844 56.96 158.195 57.2311 158.445 57.582C158.696 57.9329 158.821 58.3385 158.821 58.7988C158.821 59.2546 158.696 59.6556 158.445 60.002C158.195 60.3438 157.844 60.6104 157.393 60.8018C156.946 60.9932 156.431 61.0889 155.848 61.0889C155.264 61.0889 154.745 60.9932 154.289 60.8018C153.838 60.6104 153.487 60.3438 153.236 60.002C152.99 59.6556 152.867 59.2546 152.867 58.7988C152.867 58.3385 152.99 57.9329 153.236 57.582C153.487 57.2311 153.838 56.96 154.289 56.7686C154.745 56.5771 155.264 56.4814 155.848 56.4814ZM155.848 57.4932C155.506 57.4932 155.203 57.5456 154.938 57.6504C154.674 57.7507 154.471 57.901 154.33 58.1016C154.189 58.3021 154.118 58.5345 154.118 58.7988C154.118 59.0632 154.189 59.291 154.33 59.4824C154.471 59.6738 154.674 59.8219 154.938 59.9268C155.203 60.027 155.506 60.0771 155.848 60.0771C156.189 60.0771 156.493 60.027 156.757 59.9268C157.026 59.8219 157.233 59.6738 157.379 59.4824C157.525 59.291 157.598 59.0632 157.598 58.7988C157.598 58.5345 157.525 58.3021 157.379 58.1016C157.233 57.901 157.026 57.7507 156.757 57.6504C156.493 57.5456 156.189 57.4932 155.848 57.4932ZM156.497 55.374H155.205V53.4121H156.497V55.374ZM162.328 65.416H154.05V64.3428H162.328V65.416ZM155.335 64.7871H154.05V61.8682H155.335V64.7871ZM169.034 58.9287C169.991 58.9378 170.8 58.9196 171.461 58.874C172.126 58.8239 172.796 58.7327 173.471 58.6006L173.587 59.6602C172.89 59.7923 172.201 59.8812 171.522 59.9268C170.848 59.9723 170.019 59.9951 169.034 59.9951H168.221V58.9287H169.034ZM172.951 55.5039H169.499V59.4688H168.221V54.4512H172.951V55.5039ZM178.146 61.499H176.909V53.4053H178.146V61.499ZM177.258 57.6025H175.022V56.5293H177.258V57.6025ZM175.412 60.4189H174.209V53.6309H175.412V60.4189ZM174.462 61.3555C174.462 62.0618 174.255 62.7113 173.84 63.3037C173.43 63.8916 172.867 64.3838 172.151 64.7803C171.44 65.1768 170.647 65.4525 169.772 65.6074L169.226 64.6025C169.991 64.4932 170.686 64.2767 171.311 63.9531C171.939 63.6296 172.436 63.2422 172.801 62.791C173.17 62.3353 173.354 61.8568 173.354 61.3555V60.9248H174.462V61.3555ZM174.646 61.3555C174.646 61.8568 174.826 62.3353 175.187 62.791C175.551 63.2422 176.048 63.6296 176.677 63.9531C177.31 64.2767 178.012 64.4932 178.782 64.6025L178.229 65.6074C177.349 65.4525 176.554 65.1768 175.843 64.7803C175.132 64.3838 174.571 63.8916 174.161 63.3037C173.756 62.7113 173.553 62.0618 173.553 61.3555V60.9248H174.646V61.3555ZM189.125 54.9775H181.202V53.9316H189.125V54.9775ZM191.012 58.9424H179.801V57.9102H191.012V58.9424ZM189.59 54.7314C189.59 55.3558 189.572 55.93 189.535 56.4541C189.499 56.9736 189.408 57.5615 189.262 58.2178L187.983 58.0811C188.12 57.4385 188.207 56.8711 188.243 56.3789C188.28 55.8822 188.298 55.333 188.298 54.7314V53.9316H189.59V54.7314ZM189.604 63.2559H182.426V64.835H181.127V62.251H188.312V61.0752H181.113V60.0566H189.604V63.2559ZM189.918 65.5322H181.127V64.5H189.918V65.5322ZM198.107 60.207H192.372V54.4854H198.107V60.207ZM193.65 59.1748H196.843V55.5381H193.65V59.1748ZM201.525 62.3809H200.233V53.4121H201.525V62.3809ZM203.31 58.1562H201.129V57.0762H203.31V58.1562ZM202.045 65.416H193.767V64.3428H202.045V65.416ZM195.052 64.8213H193.767V61.5127H195.052V64.8213ZM217.576 62.3262H216.284V53.4189H217.576V62.3262ZM217.945 65.416H209.571V64.3428H217.945V65.416ZM210.87 64.7324H209.571V61.4238H210.87V64.7324ZM210.932 54.2461C211.542 54.2461 212.096 54.376 212.593 54.6357C213.094 54.891 213.486 55.251 213.769 55.7158C214.051 56.1761 214.192 56.6979 214.192 57.2812C214.192 57.8737 214.051 58.4001 213.769 58.8604C213.486 59.3206 213.094 59.6807 212.593 59.9404C212.096 60.2002 211.542 60.3301 210.932 60.3301C210.321 60.3301 209.767 60.2002 209.271 59.9404C208.778 59.6807 208.389 59.3206 208.102 58.8604C207.814 58.4001 207.671 57.8737 207.671 57.2812C207.671 56.6979 207.814 56.1761 208.102 55.7158C208.389 55.251 208.778 54.891 209.271 54.6357C209.767 54.376 210.321 54.2461 210.932 54.2461ZM210.932 55.3809C210.558 55.3809 210.218 55.4606 209.913 55.6201C209.608 55.7796 209.368 56.0029 209.195 56.29C209.027 56.5771 208.942 56.9076 208.942 57.2812C208.942 57.6549 209.027 57.9876 209.195 58.2793C209.368 58.571 209.608 58.7965 209.913 58.9561C210.218 59.1156 210.558 59.1953 210.932 59.1953C211.305 59.1953 211.643 59.1156 211.943 58.9561C212.244 58.7965 212.481 58.571 212.654 58.2793C212.827 57.9876 212.914 57.6549 212.914 57.2812C212.914 56.9076 212.827 56.5771 212.654 56.29C212.481 56.0029 212.244 55.7796 211.943 55.6201C211.643 55.4606 211.305 55.3809 210.932 55.3809ZM228.801 57.5957H226.155V56.5293H228.801V57.5957ZM229.73 60.6992H228.432V53.4053H229.73V60.6992ZM225.622 61.0479C226.483 61.0479 227.224 61.139 227.844 61.3213C228.468 61.5036 228.944 61.7679 229.272 62.1143C229.605 62.4561 229.771 62.8685 229.771 63.3516C229.771 63.8346 229.605 64.2471 229.272 64.5889C228.944 64.9352 228.468 65.1995 227.844 65.3818C227.224 65.5641 226.483 65.6576 225.622 65.6621C224.77 65.6576 224.034 65.5641 223.414 65.3818C222.794 65.1995 222.318 64.9352 221.985 64.5889C221.653 64.2471 221.486 63.8346 221.486 63.3516C221.486 62.8685 221.653 62.4561 221.985 62.1143C222.318 61.7679 222.794 61.5036 223.414 61.3213C224.034 61.139 224.77 61.0479 225.622 61.0479ZM225.622 62.0459C225.034 62.0459 224.524 62.0983 224.091 62.2031C223.662 62.3034 223.334 62.4515 223.106 62.6475C222.883 62.8434 222.771 63.0781 222.771 63.3516C222.771 63.6159 222.883 63.846 223.106 64.042C223.334 64.238 223.662 64.3883 224.091 64.4932C224.524 64.5934 225.034 64.6436 225.622 64.6436C226.224 64.6436 226.736 64.5934 227.16 64.4932C227.589 64.3883 227.914 64.238 228.138 64.042C228.366 63.846 228.479 63.6159 228.479 63.3516C228.479 63.0781 228.366 62.8434 228.138 62.6475C227.914 62.4515 227.589 62.3034 227.16 62.2031C226.736 62.0983 226.224 62.0459 225.622 62.0459ZM223.653 55.5928C223.653 56.3447 223.512 57.0557 223.229 57.7256C222.951 58.3955 222.553 58.9834 222.033 59.4893C221.514 59.9906 220.905 60.3711 220.208 60.6309L219.531 59.5918C220.151 59.373 220.691 59.0563 221.151 58.6416C221.616 58.2269 221.972 57.7552 222.218 57.2266C222.464 56.6934 222.587 56.1488 222.587 55.5928V54.6426H223.653V55.5928ZM223.899 55.5791C223.899 56.0941 224.018 56.5954 224.255 57.083C224.492 57.5661 224.834 57.999 225.28 58.3818C225.727 58.7601 226.251 59.054 226.853 59.2637L226.189 60.2959C225.501 60.0544 224.907 59.6966 224.405 59.2227C223.904 58.7487 223.519 58.1973 223.25 57.5684C222.981 56.9349 222.847 56.2718 222.847 55.5791V54.6426H223.899V55.5791ZM226.538 55.3193H219.921V54.2461H226.538V55.3193ZM235.384 62.2236H234.14V59.4004H235.384V62.2236ZM231.467 62.0049C232.643 62.0049 233.777 61.9867 234.871 61.9502C235.965 61.9092 236.945 61.8385 237.811 61.7383L237.879 62.6748C236.986 62.8252 235.992 62.9323 234.898 62.9961C233.809 63.0553 232.727 63.085 231.651 63.085L231.467 62.0049ZM242.145 65.6553H240.9V53.4053H242.145V65.6553ZM241.27 59.4961H239.123V58.4365H241.27V59.4961ZM239.561 65.04H238.357V53.6582H239.561V65.04ZM237.421 59.6465H232.082V58.5938H237.421V59.6465ZM237.312 55.668H233.354V58.9355H232.082V54.6152H237.312V55.668ZM247.682 63.29H246.403V59.7012H247.682V63.29ZM252.248 63.29H250.942V59.7012H252.248V63.29ZM254.928 64.1309H243.717V63.0576H254.928V64.1309ZM249.302 54.1162C250.177 54.1162 250.956 54.2507 251.64 54.5195C252.323 54.7839 252.856 55.1598 253.239 55.6475C253.627 56.1305 253.82 56.6865 253.82 57.3154C253.82 57.9489 253.627 58.5072 253.239 58.9902C252.856 59.4688 252.323 59.8424 251.64 60.1113C250.956 60.3757 250.177 60.5078 249.302 60.5078C248.431 60.5078 247.652 60.3757 246.964 60.1113C246.28 59.8424 245.745 59.4688 245.357 58.9902C244.97 58.5072 244.776 57.9489 244.776 57.3154C244.776 56.6865 244.97 56.1305 245.357 55.6475C245.745 55.1598 246.28 54.7839 246.964 54.5195C247.652 54.2507 248.431 54.1162 249.302 54.1162ZM249.302 55.1689C248.664 55.1644 248.099 55.251 247.606 55.4287C247.119 55.6019 246.736 55.8525 246.458 56.1807C246.185 56.5042 246.048 56.8825 246.048 57.3154C246.048 57.7484 246.185 58.1289 246.458 58.457C246.736 58.7852 247.121 59.0404 247.613 59.2227C248.105 59.4049 248.668 59.4961 249.302 59.4961C249.931 59.4961 250.491 59.4049 250.983 59.2227C251.476 59.0404 251.861 58.7852 252.139 58.457C252.417 58.1289 252.556 57.7484 252.556 57.3154C252.556 56.8825 252.417 56.5042 252.139 56.1807C251.865 55.8525 251.482 55.6019 250.99 55.4287C250.498 55.251 249.935 55.1644 249.302 55.1689ZM257.211 64.5957C257.038 64.5957 256.876 64.5501 256.726 64.459C256.575 64.3678 256.457 64.2493 256.37 64.1035C256.288 63.9531 256.247 63.7913 256.247 63.6182C256.247 63.4495 256.288 63.29 256.37 63.1396C256.457 62.9893 256.575 62.873 256.726 62.791C256.876 62.7044 257.038 62.6611 257.211 62.6611C257.38 62.6611 257.539 62.7044 257.689 62.791C257.84 62.873 257.958 62.9893 258.045 63.1396C258.132 63.29 258.175 63.4495 258.175 63.6182C258.175 63.7913 258.132 63.9531 258.045 64.1035C257.958 64.2493 257.84 64.3678 257.689 64.459C257.539 64.5501 257.38 64.5957 257.211 64.5957Z" fill="#0B0033"/>
<path d="M10.9584 102.875L14.3334 106.25L23.3334 97.2502" stroke="#D1D6DC" stroke-width="3" stroke-linecap="round" stroke-linejoin="round"/>
<path d="M23.3334 104V110.75C23.3334 111.347 23.0963 111.919 22.6744 112.341C22.2524 112.763 21.6801 113 21.0834 113H7.58337C6.98664 113 6.41434 112.763 5.99238 112.341C5.57043 111.919 5.33337 111.347 5.33337 110.75V97.25C5.33337 96.6533 5.57043 96.081 5.99238 95.659C6.41434 95.2371 6.98664 95 7.58337 95H17.7084" stroke="#D1D6DC" stroke-width="3" stroke-linecap="round" stroke-linejoin="round"/>
<path d="M45.8232 101.281H42.7812V100.208H45.8232V101.281ZM40.5322 99.6201C40.5322 100.418 40.3955 101.165 40.1221 101.862C39.8486 102.56 39.4567 103.168 38.9463 103.688C38.4404 104.202 37.8343 104.599 37.1279 104.877L36.4307 103.831C37.055 103.603 37.5951 103.277 38.0508 102.854C38.5111 102.425 38.8643 101.933 39.1104 101.377C39.361 100.816 39.4863 100.231 39.4863 99.6201V98.1641H40.5322V99.6201ZM40.7715 99.6475C40.7715 100.208 40.89 100.748 41.127 101.268C41.3685 101.783 41.7126 102.241 42.1592 102.642C42.6058 103.038 43.1299 103.346 43.7314 103.564L43.0137 104.576C42.3483 104.312 41.7695 103.936 41.2773 103.448C40.7852 102.956 40.4046 102.384 40.1357 101.732C39.8714 101.081 39.7393 100.386 39.7393 99.6475V98.1641H40.7715V99.6475ZM46.6641 106.552H45.3652V97.4189H46.6641V106.552ZM46.9375 109.416H38.6592V108.343H46.9375V109.416ZM39.9717 108.862H38.6592V105.54H39.9717V108.862ZM58.6748 98.7793H49.5762V97.7744H58.6748V98.7793ZM58.6201 101.883H49.6309V100.885H58.6201V101.883ZM52.6523 101.548H51.3604V98.1572H52.6523V101.548ZM56.8906 101.548H55.5918V98.1572H56.8906V101.548ZM59.7207 103.811H48.5508V102.778H59.7207V103.811ZM58.3057 107.563H51.1826V108.944H49.9043V106.647H57.0342V105.731H49.8838V104.774H58.3057V107.563ZM58.6611 109.539H49.9043V108.562H58.6611V109.539ZM70.8018 109.689H69.4961V97.4053H70.8018V109.689ZM64.2393 98.3281C64.8499 98.3281 65.3945 98.5059 65.873 98.8613C66.3516 99.2168 66.7253 99.7181 66.9941 100.365C67.263 101.012 67.3975 101.767 67.3975 102.628C67.3975 103.494 67.263 104.25 66.9941 104.897C66.7253 105.545 66.3516 106.046 65.873 106.401C65.3945 106.752 64.8499 106.928 64.2393 106.928C63.6286 106.928 63.0817 106.752 62.5986 106.401C62.1201 106.046 61.7464 105.545 61.4775 104.897C61.2087 104.25 61.0742 103.494 61.0742 102.628C61.0742 101.767 61.2087 101.012 61.4775 100.365C61.7464 99.7181 62.1201 99.2168 62.5986 98.8613C63.0817 98.5059 63.6286 98.3281 64.2393 98.3281ZM64.2393 99.4902C63.8656 99.4902 63.5329 99.6178 63.2412 99.873C62.9495 100.128 62.724 100.493 62.5645 100.967C62.4095 101.436 62.332 101.99 62.332 102.628C62.332 103.261 62.4095 103.815 62.5645 104.289C62.724 104.763 62.9495 105.128 63.2412 105.383C63.5329 105.633 63.8656 105.759 64.2393 105.759C64.613 105.759 64.9434 105.633 65.2305 105.383C65.5221 105.128 65.7477 104.763 65.9072 104.289C66.0667 103.815 66.1465 103.261 66.1465 102.628C66.1465 101.99 66.0667 101.436 65.9072 100.967C65.7477 100.493 65.5244 100.128 65.2373 99.873C64.9502 99.6178 64.6175 99.4902 64.2393 99.4902ZM79.4561 98.3281C80.0667 98.3281 80.6068 98.5059 81.0762 98.8613C81.5501 99.2168 81.9215 99.7181 82.1904 100.365C82.4639 101.012 82.6006 101.767 82.6006 102.628C82.6006 103.494 82.4639 104.25 82.1904 104.897C81.9215 105.545 81.5501 106.046 81.0762 106.401C80.6022 106.752 80.0622 106.928 79.4561 106.928C78.8499 106.928 78.3076 106.752 77.8291 106.401C77.3551 106.046 76.9837 105.545 76.7148 104.897C76.4505 104.25 76.3184 103.494 76.3184 102.628C76.3184 101.767 76.4505 101.012 76.7148 100.365C76.9837 99.7181 77.3551 99.2168 77.8291 98.8613C78.3076 98.5059 78.8499 98.3281 79.4561 98.3281ZM79.4561 99.4902C79.0824 99.4902 78.752 99.6178 78.4648 99.873C78.1777 100.128 77.9544 100.493 77.7949 100.967C77.6354 101.436 77.5557 101.99 77.5557 102.628C77.5557 103.261 77.6354 103.815 77.7949 104.289C77.9544 104.763 78.18 105.128 78.4717 105.383C78.7633 105.633 79.0915 105.759 79.4561 105.759C79.8298 105.759 80.1602 105.633 80.4473 105.383C80.7344 105.128 80.9554 104.763 81.1104 104.289C81.2699 103.815 81.3496 103.261 81.3496 102.628C81.3496 101.99 81.2699 101.436 81.1104 100.967C80.9554 100.493 80.7344 100.128 80.4473 99.873C80.1602 99.6178 79.8298 99.4902 79.4561 99.4902ZM85.7109 109.655H84.4189V97.4053H85.7109V109.655ZM87.6865 103.312H85.417V102.204H87.6865V103.312ZM98.4258 106.319H97.1338V97.4189H98.4258V106.319ZM98.7949 109.416H90.3252V108.343H98.7949V109.416ZM91.6309 108.821H90.3252V105.376H91.6309V108.821ZM90.3184 103.455H89.0127V98.3281H90.3184V103.455ZM90.0312 102.936C91.1706 102.945 92.2005 102.91 93.1211 102.833C94.0462 102.756 94.9691 102.617 95.8896 102.416L96.0537 103.489C95.0876 103.69 94.126 103.831 93.1689 103.913C92.2165 103.995 91.1706 104.036 90.0312 104.036H89.0127V102.936H90.0312ZM105.118 102.929C106.075 102.938 106.884 102.92 107.545 102.874C108.21 102.824 108.88 102.733 109.555 102.601L109.671 103.66C108.974 103.792 108.285 103.881 107.606 103.927C106.932 103.972 106.103 103.995 105.118 103.995H104.305V102.929H105.118ZM109.035 99.5039H105.583V103.469H104.305V98.4512H109.035V99.5039ZM114.23 105.499H112.993V97.4053H114.23V105.499ZM113.342 101.603H111.106V100.529H113.342V101.603ZM111.496 104.419H110.293V97.6309H111.496V104.419ZM110.546 105.355C110.546 106.062 110.339 106.711 109.924 107.304C109.514 107.892 108.951 108.384 108.235 108.78C107.524 109.177 106.731 109.452 105.856 109.607L105.31 108.603C106.075 108.493 106.77 108.277 107.395 107.953C108.023 107.63 108.52 107.242 108.885 106.791C109.254 106.335 109.438 105.857 109.438 105.355V104.925H110.546V105.355ZM110.73 105.355C110.73 105.857 110.91 106.335 111.271 106.791C111.635 107.242 112.132 107.63 112.761 107.953C113.394 108.277 114.096 108.493 114.866 108.603L114.312 109.607C113.433 109.452 112.638 109.177 111.927 108.78C111.216 108.384 110.655 107.892 110.245 107.304C109.84 106.711 109.637 106.062 109.637 105.355V104.925H110.73V105.355ZM125.209 98.9775H117.286V97.9316H125.209V98.9775ZM127.096 102.942H115.885V101.91H127.096V102.942ZM125.674 98.7314C125.674 99.3558 125.656 99.93 125.619 100.454C125.583 100.974 125.492 101.562 125.346 102.218L124.067 102.081C124.204 101.438 124.291 100.871 124.327 100.379C124.364 99.8822 124.382 99.333 124.382 98.7314V97.9316H125.674V98.7314ZM125.688 107.256H118.51V108.835H117.211V106.251H124.396V105.075H117.197V104.057H125.688V107.256ZM126.002 109.532H117.211V108.5H126.002V109.532ZM131.457 97.8291C132.068 97.8291 132.617 97.9453 133.104 98.1777C133.597 98.4102 133.979 98.736 134.253 99.1553C134.526 99.57 134.663 100.042 134.663 100.57C134.663 101.099 134.526 101.571 134.253 101.985C133.979 102.4 133.597 102.724 133.104 102.956C132.617 103.188 132.068 103.305 131.457 103.305C130.842 103.305 130.288 103.188 129.796 102.956C129.308 102.724 128.925 102.4 128.647 101.985C128.374 101.571 128.237 101.099 128.237 100.57C128.237 100.042 128.374 99.57 128.647 99.1553C128.925 98.736 129.308 98.4102 129.796 98.1777C130.288 97.9453 130.842 97.8291 131.457 97.8291ZM131.457 98.9092C131.088 98.9092 130.755 98.9775 130.459 99.1143C130.163 99.251 129.93 99.4469 129.762 99.7021C129.593 99.9528 129.509 100.242 129.509 100.57C129.509 100.898 129.593 101.19 129.762 101.445C129.93 101.701 130.163 101.899 130.459 102.04C130.755 102.181 131.088 102.252 131.457 102.252C131.831 102.252 132.166 102.181 132.462 102.04C132.758 101.899 132.991 101.701 133.159 101.445C133.328 101.19 133.412 100.898 133.412 100.57C133.412 100.242 133.328 99.9528 133.159 99.7021C132.991 99.4469 132.758 99.251 132.462 99.1143C132.166 98.9775 131.831 98.9092 131.457 98.9092ZM138.143 103.653H136.851V97.4053H138.143V103.653ZM138.143 107.29H131.396V109.026H130.124V106.333H136.857V105.239H130.097V104.214H138.143V107.29ZM138.553 109.505H130.124V108.473H138.553V109.505ZM147.768 100.522C147.768 101.489 147.619 102.414 147.323 103.298C147.027 104.177 146.612 104.954 146.079 105.629C145.546 106.299 144.924 106.807 144.213 107.153L143.399 106.066C144.037 105.779 144.605 105.351 145.102 104.781C145.603 104.207 145.993 103.549 146.271 102.806C146.553 102.058 146.694 101.297 146.694 100.522V98.4238H147.768V100.522ZM148 100.522C148 101.265 148.137 101.992 148.41 102.703C148.688 103.414 149.073 104.048 149.565 104.604C150.062 105.16 150.62 105.576 151.24 105.854L150.461 106.887C149.773 106.559 149.158 106.071 148.615 105.424C148.077 104.777 147.66 104.029 147.364 103.182C147.068 102.334 146.92 101.448 146.92 100.522V98.4238H148V100.522ZM153.653 109.689H152.348V97.4053H153.653V109.689ZM169.561 109.655H168.31V97.4053H169.561V109.655ZM168.761 103.353H166.471V102.279H168.761V103.353ZM166.867 109.04H165.637V97.6582H166.867V109.04ZM164.83 99.9688H159.136V98.9092H164.83V99.9688ZM158.883 105.615C159.972 105.615 161.059 105.597 162.144 105.561C163.228 105.52 164.19 105.442 165.028 105.328L165.104 106.278C164.247 106.442 163.287 106.554 162.226 106.613C161.164 106.673 160.102 106.702 159.04 106.702L158.883 105.615ZM161.31 105.923H160.113V99.5928H161.31V105.923ZM163.859 105.923H162.67V99.5928H163.859V105.923ZM173.136 102.915H171.837V97.9795H173.136V102.915ZM172.794 102.177C173.833 102.172 174.783 102.138 175.645 102.074C176.506 102.006 177.374 101.89 178.249 101.726L178.44 102.792C177.506 102.965 176.59 103.088 175.692 103.161C174.795 103.234 173.828 103.266 172.794 103.257H171.837V102.177H172.794ZM180.32 100.406H176.677V99.3604H180.32V100.406ZM181.332 103.708H180.033V97.4053H181.332V103.708ZM181.332 107.311H174.64V109.026H173.348V106.312H180.026V105.273H173.327V104.234H181.332V107.311ZM181.729 109.505H173.348V108.452H181.729V109.505ZM184.969 105.711C186.176 105.711 187.215 105.684 188.086 105.629C188.956 105.57 189.85 105.467 190.766 105.321L190.896 106.381C189.993 106.522 189.098 106.62 188.209 106.675C187.32 106.725 186.24 106.755 184.969 106.764H183.964V105.711H184.969ZM190.021 99.5654H185.256V106.053H183.964V98.4854H190.021V99.5654ZM189.556 102.963H184.948V101.924H189.556V102.963ZM193.404 109.655H192.092V97.4053H193.404V109.655ZM204.861 109.648H203.569V97.4053H204.861V109.648ZM206.762 103.38H204.526V102.3H206.762V103.38ZM201.655 98.7041C201.655 99.93 201.464 101.076 201.081 102.143C200.703 103.204 200.097 104.184 199.263 105.082C198.433 105.975 197.365 106.745 196.057 107.393L195.332 106.381C196.458 105.816 197.394 105.164 198.142 104.426C198.889 103.683 199.45 102.856 199.823 101.944C200.197 101.028 200.384 100.023 200.384 98.9297V98.7041H201.655ZM201.04 99.7842H195.934V98.7041H201.04V99.7842ZM222.033 105.649H210.822V104.61H222.033V105.649ZM217.036 109.655H215.758V105.089H217.036V109.655ZM213.502 99.5039H219.326V97.9043H220.632V103.229H212.217V97.9043H213.502V99.5039ZM219.326 102.177V100.543H213.502V102.177H219.326ZM232.137 101.145H228.486V100.071H232.137V101.145ZM232.137 104.986H228.486V103.927H232.137V104.986ZM226.258 98.3281C226.859 98.3281 227.393 98.5059 227.857 98.8613C228.327 99.2168 228.694 99.7181 228.958 100.365C229.222 101.012 229.354 101.767 229.354 102.628C229.354 103.494 229.222 104.25 228.958 104.897C228.694 105.545 228.327 106.046 227.857 106.401C227.393 106.752 226.859 106.928 226.258 106.928C225.656 106.928 225.118 106.752 224.645 106.401C224.175 106.05 223.808 105.551 223.544 104.904C223.28 104.253 223.147 103.494 223.147 102.628C223.147 101.767 223.28 101.012 223.544 100.365C223.808 99.7181 224.175 99.2168 224.645 98.8613C225.118 98.5059 225.656 98.3281 226.258 98.3281ZM226.258 99.4902C225.893 99.4902 225.567 99.6178 225.28 99.873C224.993 100.128 224.772 100.493 224.617 100.967C224.467 101.436 224.392 101.99 224.392 102.628C224.392 103.261 224.467 103.815 224.617 104.289C224.772 104.763 224.993 105.128 225.28 105.383C225.567 105.633 225.893 105.759 226.258 105.759C226.622 105.759 226.948 105.633 227.235 105.383C227.522 105.128 227.743 104.763 227.898 104.289C228.053 103.815 228.131 103.261 228.131 102.628C228.131 101.99 228.051 101.436 227.892 100.967C227.737 100.493 227.518 100.128 227.235 99.873C226.957 99.6178 226.632 99.4902 226.258 99.4902ZM233.155 109.689H231.863V97.4053H233.155V109.689ZM242.165 101.527H236.218V100.516H242.165V101.527ZM242.035 98.9229H237.551V100.987H236.218V97.9316H242.035V98.9229ZM239.8 103.1H238.494V101.11H239.8V103.1ZM245.214 103.968H243.929V97.4189H245.214V103.968ZM235.104 102.717C236.607 102.712 238.018 102.687 239.335 102.642C240.652 102.591 241.887 102.503 243.04 102.375L243.108 103.264C241.928 103.446 240.679 103.571 239.362 103.64C238.045 103.703 236.683 103.735 235.274 103.735L235.104 102.717ZM245.214 107.454H238.31V108.903H237.031V106.483H243.936V105.499H237.004V104.48H245.214V107.454ZM245.61 109.539H237.031V108.5H245.61V109.539ZM256.609 98.4854C256.609 99.2419 256.386 99.9391 255.939 100.577C255.493 101.215 254.887 101.746 254.121 102.17C253.36 102.589 252.521 102.872 251.605 103.018L251.086 101.972C251.879 101.867 252.61 101.641 253.28 101.295C253.95 100.949 254.481 100.529 254.873 100.037C255.27 99.5449 255.468 99.0277 255.468 98.4854V97.8223H256.609V98.4854ZM256.814 98.4854C256.814 99.0231 257.013 99.5404 257.409 100.037C257.81 100.529 258.348 100.949 259.022 101.295C259.701 101.641 260.433 101.867 261.217 101.972L260.704 103.018C259.784 102.872 258.943 102.587 258.182 102.163C257.421 101.739 256.814 101.208 256.363 100.57C255.912 99.9323 255.687 99.2373 255.687 98.4854V97.8223H256.814V98.4854ZM256.753 109.655H255.475V105.041H256.753V109.655ZM261.723 105.308H250.553V104.228H261.723V105.308ZM270.076 105.513C270.076 106.078 269.967 106.625 269.748 107.153C269.534 107.677 269.217 108.142 268.798 108.548C268.383 108.953 267.88 109.266 267.287 109.484L266.638 108.534C267.148 108.347 267.583 108.094 267.943 107.775C268.308 107.452 268.586 107.094 268.777 106.702C268.969 106.31 269.064 105.914 269.064 105.513V104.925H270.076V105.513ZM270.322 105.513C270.322 105.923 270.404 106.331 270.568 106.736C270.732 107.137 270.979 107.502 271.307 107.83C271.635 108.158 272.04 108.42 272.523 108.616L271.99 109.587C271.402 109.364 270.912 109.04 270.521 108.616C270.133 108.192 269.846 107.714 269.659 107.181C269.477 106.647 269.386 106.091 269.386 105.513V104.925H270.322V105.513ZM274.574 105.513C274.574 106.041 274.479 106.575 274.287 107.112C274.1 107.646 273.813 108.131 273.426 108.568C273.038 109.01 272.56 109.35 271.99 109.587L271.443 108.616C271.913 108.402 272.312 108.122 272.64 107.775C272.972 107.424 273.218 107.051 273.378 106.654C273.542 106.258 273.624 105.877 273.624 105.513V104.925H274.574V105.513ZM274.902 105.513C274.902 105.941 274.996 106.354 275.183 106.75C275.369 107.142 275.645 107.495 276.01 107.81C276.379 108.124 276.819 108.366 277.329 108.534L276.693 109.484C276.092 109.275 275.581 108.972 275.162 108.575C274.743 108.179 274.426 107.718 274.212 107.194C273.998 106.666 273.891 106.105 273.891 105.513V104.925H274.902V105.513ZM276.229 104.392H274.937V97.4189H276.229V104.392ZM269.584 98.1025C270.204 98.1025 270.76 98.2256 271.252 98.4717C271.749 98.7132 272.138 99.055 272.421 99.4971C272.703 99.9346 272.845 100.436 272.845 101.001C272.845 101.552 272.703 102.047 272.421 102.484C272.138 102.922 271.749 103.261 271.252 103.503C270.76 103.744 270.204 103.865 269.584 103.865C268.964 103.865 268.406 103.744 267.909 103.503C267.417 103.261 267.03 102.922 266.747 102.484C266.465 102.047 266.323 101.552 266.323 101.001C266.323 100.436 266.465 99.9346 266.747 99.4971C267.03 99.055 267.417 98.7132 267.909 98.4717C268.406 98.2256 268.964 98.1025 269.584 98.1025ZM269.584 99.2031C269.201 99.194 268.857 99.2646 268.552 99.415C268.251 99.5654 268.016 99.7796 267.848 100.058C267.679 100.331 267.595 100.646 267.595 101.001C267.595 101.343 267.679 101.65 267.848 101.924C268.016 102.193 268.251 102.402 268.552 102.553C268.857 102.703 269.201 102.783 269.584 102.792C269.967 102.783 270.306 102.703 270.603 102.553C270.903 102.402 271.138 102.193 271.307 101.924C271.48 101.65 271.566 101.343 271.566 101.001C271.566 100.646 271.482 100.331 271.313 100.058C271.145 99.7796 270.91 99.5654 270.609 99.415C270.309 99.2646 269.967 99.194 269.584 99.2031ZM281.492 98.3281C282.094 98.3281 282.627 98.5059 283.092 98.8613C283.561 99.2168 283.928 99.7181 284.192 100.365C284.457 101.012 284.589 101.767 284.589 102.628C284.589 103.494 284.457 104.25 284.192 104.897C283.928 105.545 283.561 106.046 283.092 106.401C282.627 106.752 282.094 106.928 281.492 106.928C280.891 106.928 280.353 106.752 279.879 106.401C279.41 106.05 279.043 105.551 278.778 104.904C278.514 104.253 278.382 103.494 278.382 102.628C278.382 101.767 278.514 101.012 278.778 100.365C279.043 99.7181 279.41 99.2168 279.879 98.8613C280.353 98.5059 280.891 98.3281 281.492 98.3281ZM281.492 99.4902C281.128 99.4902 280.802 99.6178 280.515 99.873C280.228 100.128 280.007 100.493 279.852 100.967C279.701 101.436 279.626 101.99 279.626 102.628C279.626 103.261 279.701 103.815 279.852 104.289C280.007 104.763 280.228 105.128 280.515 105.383C280.802 105.633 281.128 105.759 281.492 105.759C281.857 105.759 282.183 105.633 282.47 105.383C282.757 105.128 282.978 104.763 283.133 104.289C283.288 103.815 283.365 103.261 283.365 102.628C283.365 101.99 283.285 101.436 283.126 100.967C282.971 100.493 282.752 100.128 282.47 99.873C282.192 99.6178 281.866 99.4902 281.492 99.4902ZM288.39 109.689H287.098V97.4053H288.39V109.689ZM287.665 103.065H284.179V102.006H287.665V103.065ZM294.234 107.29H292.956V103.701H294.234V107.29ZM298.801 107.29H297.495V103.701H298.801V107.29ZM301.48 108.131H290.27V107.058H301.48V108.131ZM295.854 98.1162C296.729 98.1162 297.509 98.2507 298.192 98.5195C298.876 98.7839 299.409 99.1598 299.792 99.6475C300.179 100.131 300.373 100.687 300.373 101.315C300.373 101.949 300.179 102.507 299.792 102.99C299.409 103.469 298.876 103.842 298.192 104.111C297.509 104.376 296.729 104.508 295.854 104.508C294.984 104.508 294.205 104.376 293.517 104.111C292.833 103.842 292.298 103.469 291.91 102.99C291.523 102.507 291.329 101.949 291.329 101.315C291.329 100.687 291.523 100.131 291.91 99.6475C292.298 99.1598 292.833 98.7839 293.517 98.5195C294.205 98.2507 294.984 98.1162 295.854 98.1162ZM295.854 99.1689C295.216 99.1644 294.651 99.251 294.159 99.4287C293.672 99.6019 293.289 99.8525 293.011 100.181C292.737 100.504 292.601 100.882 292.601 101.315C292.601 101.748 292.737 102.129 293.011 102.457C293.289 102.785 293.674 103.04 294.166 103.223C294.658 103.405 295.221 103.496 295.854 103.496C296.483 103.496 297.044 103.405 297.536 103.223C298.028 103.04 298.413 102.785 298.691 102.457C298.969 102.129 299.108 101.748 299.108 101.315C299.108 100.882 298.969 100.504 298.691 100.181C298.418 99.8525 298.035 99.6019 297.543 99.4287C297.051 99.251 296.488 99.1644 295.854 99.1689ZM303.764 108.596C303.59 108.596 303.429 108.55 303.278 108.459C303.128 108.368 303.009 108.249 302.923 108.104C302.841 107.953 302.8 107.791 302.8 107.618C302.8 107.45 302.841 107.29 302.923 107.14C303.009 106.989 303.128 106.873 303.278 106.791C303.429 106.704 303.59 106.661 303.764 106.661C303.932 106.661 304.092 106.704 304.242 106.791C304.393 106.873 304.511 106.989 304.598 107.14C304.684 107.29 304.728 107.45 304.728 107.618C304.728 107.791 304.684 107.953 304.598 108.104C304.511 108.249 304.393 108.368 304.242 108.459C304.092 108.55 303.932 108.596 303.764 108.596Z" fill="#0B0033"/>
<path d="M10.9584 146.875L14.3334 150.25L23.3334 141.25" stroke="#D1D6DC" stroke-width="3" stroke-linecap="round" stroke-linejoin="round"/>
<path d="M23.3334 148V154.75C23.3334 155.347 23.0963 155.919 22.6744 156.341C22.2524 156.763 21.6801 157 21.0834 157H7.58337C6.98664 157 6.41434 156.763 5.99238 156.341C5.57043 155.919 5.33337 155.347 5.33337 154.75V141.25C5.33337 140.653 5.57043 140.081 5.99238 139.659C6.41434 139.237 6.98664 139 7.58337 139H17.7084" stroke="#D1D6DC" stroke-width="3" stroke-linecap="round" stroke-linejoin="round"/>
<path d="M45.9941 153.655H44.709V141.405H45.9941V153.655ZM47.9697 147.448H45.7002V146.375H47.9697V147.448ZM43.6426 144.386H36.3828V143.326H43.6426V144.386ZM40.0674 145.295C40.6507 145.295 41.1725 145.416 41.6328 145.657C42.0977 145.899 42.46 146.236 42.7197 146.669C42.984 147.102 43.1162 147.592 43.1162 148.139C43.1162 148.69 42.984 149.182 42.7197 149.615C42.46 150.048 42.0977 150.385 41.6328 150.627C41.1725 150.868 40.6507 150.989 40.0674 150.989C39.4795 150.989 38.9554 150.868 38.4951 150.627C38.0348 150.385 37.6725 150.048 37.4082 149.615C37.1484 149.182 37.0186 148.69 37.0186 148.139C37.0186 147.592 37.1484 147.102 37.4082 146.669C37.6725 146.236 38.0348 145.899 38.4951 145.657C38.9554 145.416 39.4795 145.295 40.0674 145.295ZM40.0674 146.368C39.721 146.368 39.4111 146.443 39.1377 146.594C38.8643 146.74 38.6478 146.947 38.4883 147.216C38.3333 147.485 38.2559 147.792 38.2559 148.139C38.2559 148.49 38.3333 148.797 38.4883 149.062C38.6478 149.326 38.8643 149.533 39.1377 149.684C39.4111 149.829 39.721 149.902 40.0674 149.902C40.4137 149.902 40.7236 149.829 40.9971 149.684C41.2705 149.533 41.4847 149.326 41.6396 149.062C41.7946 148.797 41.8721 148.49 41.8721 148.139C41.8721 147.792 41.7946 147.485 41.6396 147.216C41.4847 146.947 41.2705 146.74 40.9971 146.594C40.7236 146.443 40.4137 146.368 40.0674 146.368ZM40.7031 143.777H39.4111V141.569H40.7031V143.777ZM59.9941 147.291H57.7588V146.211H59.9941V147.291ZM58.0938 153.648H56.8018V141.405H58.0938V153.648ZM50.3145 150.196H49.0225V142.602H50.3145V150.196ZM50.0273 149.499C50.9889 149.499 51.9391 149.456 52.8779 149.369C53.8167 149.283 54.7692 149.139 55.7354 148.938L55.8926 150.032C54.9128 150.233 53.9421 150.374 52.9805 150.456C52.0234 150.538 51.0391 150.579 50.0273 150.579H49.0225V149.499H50.0273ZM64.6494 142.273C65.292 142.273 65.8639 142.399 66.3652 142.649C66.8665 142.896 67.2585 143.242 67.541 143.688C67.8281 144.131 67.9717 144.634 67.9717 145.199C67.9717 145.764 67.8281 146.27 67.541 146.717C67.2585 147.159 66.8665 147.505 66.3652 147.756C65.8639 148.002 65.292 148.125 64.6494 148.125C64.0114 148.125 63.4372 148.002 62.9268 147.756C62.4163 147.505 62.0176 147.159 61.7305 146.717C61.4479 146.27 61.3066 145.764 61.3066 145.199C61.3066 144.634 61.4479 144.131 61.7305 143.688C62.0176 143.242 62.4163 142.896 62.9268 142.649C63.4372 142.399 64.0114 142.273 64.6494 142.273ZM64.6494 143.408C64.2529 143.408 63.8975 143.481 63.583 143.627C63.2731 143.773 63.0293 143.982 62.8516 144.256C62.6738 144.529 62.585 144.844 62.585 145.199C62.585 145.555 62.6738 145.867 62.8516 146.136C63.0293 146.405 63.2731 146.614 63.583 146.765C63.8975 146.915 64.2529 146.99 64.6494 146.99C65.0459 146.99 65.3991 146.915 65.709 146.765C66.0234 146.614 66.2673 146.405 66.4404 146.136C66.6182 145.867 66.707 145.555 66.707 145.199C66.707 144.844 66.6182 144.529 66.4404 144.256C66.2673 143.982 66.0234 143.773 65.709 143.627C65.3991 143.481 65.0459 143.408 64.6494 143.408ZM70.7812 153.689H69.4893V141.405H70.7812V153.689ZM60.7119 149.971C61.7236 149.966 62.6396 149.955 63.46 149.937C64.2848 149.918 65.1598 149.882 66.085 149.827C67.0146 149.768 67.8919 149.679 68.7168 149.561L68.8125 150.511C67.9603 150.666 67.0739 150.784 66.1533 150.866C65.2373 150.944 64.376 150.994 63.5693 151.017C62.7627 151.039 61.8672 151.051 60.8828 151.051L60.7119 149.971ZM85.3896 143.012H77.4873V141.966H85.3896V143.012ZM85.9775 143.032C85.9775 143.561 85.973 144.01 85.9639 144.379C85.9548 144.748 85.9251 145.163 85.875 145.623C85.8249 146.083 85.7474 146.573 85.6426 147.093L84.3574 146.983C84.4668 146.482 84.5465 146.008 84.5967 145.562C84.6468 145.115 84.6764 144.712 84.6855 144.352C84.6947 143.992 84.6992 143.552 84.6992 143.032V141.966H85.9775V143.032ZM77.3438 145.521L77.1729 144.434L85.0752 144.201V145.165L77.3438 145.521ZM87.3242 148.891H76.1885V147.845H87.3242V148.891ZM81.9033 148.521H80.5977V146.136H81.9033V148.521ZM86.2441 153.471H77.5625V152.418H86.2441V153.471ZM78.8682 152.869H77.5625V149.841H78.8682V152.869ZM95.6025 145.89H93.5518V144.857H95.6025V145.89ZM98.7129 150.586H97.4756V141.419H98.7129V150.586ZM96.3135 150.278H95.0693V141.658H96.3135V150.278ZM99.0615 153.416H90.6465V152.343H99.0615V153.416ZM91.9658 152.999H90.6465V149.574H91.9658V152.999ZM89.6074 147.599C90.6693 147.599 91.5078 147.58 92.123 147.544C92.7383 147.503 93.3604 147.419 93.9893 147.291L94.1191 148.33C93.4492 148.462 92.7884 148.549 92.1367 148.59C91.4896 148.631 90.6465 148.651 89.6074 148.651H88.8145V147.599H89.6074ZM93.4834 143.456H90.0586V147.975H88.8145V142.396H93.4834V143.456ZM92.9912 145.992H89.6689V144.987H92.9912V145.992ZM111.578 152.138H100.367V151.064H111.578V152.138ZM106.438 144.263C106.438 145.097 106.223 145.853 105.795 146.532C105.367 147.211 104.774 147.774 104.018 148.221C103.266 148.667 102.413 148.979 101.461 149.157L100.955 148.111C101.794 147.975 102.541 147.719 103.197 147.346C103.858 146.972 104.373 146.519 104.742 145.985C105.116 145.452 105.303 144.878 105.303 144.263V144.003H106.438V144.263ZM106.622 144.263C106.622 144.878 106.807 145.452 107.176 145.985C107.549 146.519 108.067 146.972 108.728 147.346C109.393 147.719 110.143 147.975 110.977 148.111L110.457 149.157C109.5 148.979 108.643 148.667 107.887 148.221C107.135 147.774 106.542 147.211 106.109 146.532C105.681 145.853 105.467 145.097 105.467 144.263V144.003H106.622V144.263ZM110.539 144.352H101.386V143.299H110.539V144.352ZM106.595 143.695H105.316V141.672H106.595V143.695ZM125.523 148.651H124.218V141.405H125.523V148.651ZM127.294 145.582H125.147V144.509H127.294V145.582ZM121.552 148.877C122.381 148.877 123.101 148.97 123.712 149.157C124.327 149.344 124.799 149.615 125.127 149.971C125.455 150.326 125.619 150.752 125.619 151.249C125.619 151.746 125.455 152.174 125.127 152.534C124.799 152.894 124.329 153.168 123.719 153.354C123.113 153.546 122.39 153.642 121.552 153.642C120.709 153.642 119.979 153.546 119.364 153.354C118.754 153.168 118.28 152.894 117.942 152.534C117.61 152.174 117.443 151.746 117.443 151.249C117.443 150.752 117.61 150.326 117.942 149.971C118.28 149.615 118.756 149.344 119.371 149.157C119.991 148.97 120.718 148.877 121.552 148.877ZM121.552 149.93C120.973 149.921 120.469 149.968 120.041 150.073C119.613 150.178 119.285 150.331 119.057 150.531C118.833 150.732 118.722 150.971 118.722 151.249C118.722 151.522 118.833 151.764 119.057 151.974C119.285 152.179 119.613 152.336 120.041 152.445C120.469 152.55 120.973 152.603 121.552 152.603C122.131 152.603 122.63 152.55 123.049 152.445C123.473 152.336 123.799 152.179 124.026 151.974C124.254 151.764 124.368 151.522 124.368 151.249C124.368 150.971 124.254 150.732 124.026 150.531C123.799 150.331 123.473 150.178 123.049 150.073C122.63 149.968 122.131 149.921 121.552 149.93ZM117.382 146.71C118.767 146.701 119.861 146.671 120.663 146.621C121.465 146.566 122.249 146.459 123.015 146.3L123.138 147.353C122.354 147.517 121.549 147.626 120.725 147.681C119.904 147.731 118.79 147.756 117.382 147.756H116.404V146.71H117.382ZM121.873 143.367H117.683V147.414H116.404V142.308H121.873V143.367ZM140.945 153.655H139.66V141.405H140.945V153.655ZM142.921 147.448H140.651V146.375H142.921V147.448ZM138.594 144.386H131.334V143.326H138.594V144.386ZM135.019 145.295C135.602 145.295 136.124 145.416 136.584 145.657C137.049 145.899 137.411 146.236 137.671 146.669C137.935 147.102 138.067 147.592 138.067 148.139C138.067 148.69 137.935 149.182 137.671 149.615C137.411 150.048 137.049 150.385 136.584 150.627C136.124 150.868 135.602 150.989 135.019 150.989C134.431 150.989 133.907 150.868 133.446 150.627C132.986 150.385 132.624 150.048 132.359 149.615C132.1 149.182 131.97 148.69 131.97 148.139C131.97 147.592 132.1 147.102 132.359 146.669C132.624 146.236 132.986 145.899 133.446 145.657C133.907 145.416 134.431 145.295 135.019 145.295ZM135.019 146.368C134.672 146.368 134.362 146.443 134.089 146.594C133.815 146.74 133.599 146.947 133.439 147.216C133.285 147.485 133.207 147.792 133.207 148.139C133.207 148.49 133.285 148.797 133.439 149.062C133.599 149.326 133.815 149.533 134.089 149.684C134.362 149.829 134.672 149.902 135.019 149.902C135.365 149.902 135.675 149.829 135.948 149.684C136.222 149.533 136.436 149.326 136.591 149.062C136.746 148.797 136.823 148.49 136.823 148.139C136.823 147.792 136.746 147.485 136.591 147.216C136.436 146.947 136.222 146.74 135.948 146.594C135.675 146.443 135.365 146.368 135.019 146.368ZM135.654 143.777H134.362V141.569H135.654V143.777ZM154.945 147.291H152.71V146.211H154.945V147.291ZM153.045 153.648H151.753V141.405H153.045V153.648ZM145.266 150.196H143.974V142.602H145.266V150.196ZM144.979 149.499C145.94 149.499 146.89 149.456 147.829 149.369C148.768 149.283 149.72 149.139 150.687 148.938L150.844 150.032C149.864 150.233 148.893 150.374 147.932 150.456C146.975 150.538 145.99 150.579 144.979 150.579H143.974V149.499H144.979ZM159.601 142.273C160.243 142.273 160.815 142.399 161.316 142.649C161.818 142.896 162.21 143.242 162.492 143.688C162.779 144.131 162.923 144.634 162.923 145.199C162.923 145.764 162.779 146.27 162.492 146.717C162.21 147.159 161.818 147.505 161.316 147.756C160.815 148.002 160.243 148.125 159.601 148.125C158.963 148.125 158.388 148.002 157.878 147.756C157.368 147.505 156.969 147.159 156.682 146.717C156.399 146.27 156.258 145.764 156.258 145.199C156.258 144.634 156.399 144.131 156.682 143.688C156.969 143.242 157.368 142.896 157.878 142.649C158.388 142.399 158.963 142.273 159.601 142.273ZM159.601 143.408C159.204 143.408 158.849 143.481 158.534 143.627C158.224 143.773 157.98 143.982 157.803 144.256C157.625 144.529 157.536 144.844 157.536 145.199C157.536 145.555 157.625 145.867 157.803 146.136C157.98 146.405 158.224 146.614 158.534 146.765C158.849 146.915 159.204 146.99 159.601 146.99C159.997 146.99 160.35 146.915 160.66 146.765C160.975 146.614 161.218 146.405 161.392 146.136C161.569 145.867 161.658 145.555 161.658 145.199C161.658 144.844 161.569 144.529 161.392 144.256C161.218 143.982 160.975 143.773 160.66 143.627C160.35 143.481 159.997 143.408 159.601 143.408ZM165.732 153.689H164.44V141.405H165.732V153.689ZM155.663 149.971C156.675 149.966 157.591 149.955 158.411 149.937C159.236 149.918 160.111 149.882 161.036 149.827C161.966 149.768 162.843 149.679 163.668 149.561L163.764 150.511C162.911 150.666 162.025 150.784 161.104 150.866C160.188 150.944 159.327 150.994 158.521 151.017C157.714 151.039 156.818 151.051 155.834 151.051L155.663 149.971ZM180.491 145.281H177.449V144.208H180.491V145.281ZM175.2 143.62C175.2 144.418 175.063 145.165 174.79 145.862C174.517 146.56 174.125 147.168 173.614 147.688C173.108 148.202 172.502 148.599 171.796 148.877L171.099 147.831C171.723 147.603 172.263 147.277 172.719 146.854C173.179 146.425 173.532 145.933 173.778 145.377C174.029 144.816 174.154 144.231 174.154 143.62V142.164H175.2V143.62ZM175.439 143.647C175.439 144.208 175.558 144.748 175.795 145.268C176.036 145.783 176.381 146.241 176.827 146.642C177.274 147.038 177.798 147.346 178.399 147.564L177.682 148.576C177.016 148.312 176.438 147.936 175.945 147.448C175.453 146.956 175.073 146.384 174.804 145.732C174.539 145.081 174.407 144.386 174.407 143.647V142.164H175.439V143.647ZM181.332 150.552H180.033V141.419H181.332V150.552ZM181.605 153.416H173.327V152.343H181.605V153.416ZM174.64 152.862H173.327V149.54H174.64V152.862ZM193.343 142.779H184.244V141.774H193.343V142.779ZM193.288 145.883H184.299V144.885H193.288V145.883ZM187.32 145.548H186.028V142.157H187.32V145.548ZM191.559 145.548H190.26V142.157H191.559V145.548ZM194.389 147.811H183.219V146.778H194.389V147.811ZM192.974 151.563H185.851V152.944H184.572V150.647H191.702V149.731H184.552V148.774H192.974V151.563ZM193.329 153.539H184.572V152.562H193.329V153.539ZM201.525 148.207H195.79V142.485H201.525V148.207ZM197.068 147.175H200.261V143.538H197.068V147.175ZM204.943 150.381H203.651V141.412H204.943V150.381ZM206.728 146.156H204.547V145.076H206.728V146.156ZM205.463 153.416H197.185V152.343H205.463V153.416ZM198.47 152.821H197.185V149.513H198.47V152.821ZM220.994 150.326H219.702V141.419H220.994V150.326ZM221.363 153.416H212.989V152.343H221.363V153.416ZM214.288 152.732H212.989V149.424H214.288V152.732ZM214.35 142.246C214.96 142.246 215.514 142.376 216.011 142.636C216.512 142.891 216.904 143.251 217.187 143.716C217.469 144.176 217.61 144.698 217.61 145.281C217.61 145.874 217.469 146.4 217.187 146.86C216.904 147.321 216.512 147.681 216.011 147.94C215.514 148.2 214.96 148.33 214.35 148.33C213.739 148.33 213.185 148.2 212.688 147.94C212.196 147.681 211.807 147.321 211.52 146.86C211.232 146.4 211.089 145.874 211.089 145.281C211.089 144.698 211.232 144.176 211.52 143.716C211.807 143.251 212.196 142.891 212.688 142.636C213.185 142.376 213.739 142.246 214.35 142.246ZM214.35 143.381C213.976 143.381 213.636 143.461 213.331 143.62C213.026 143.78 212.786 144.003 212.613 144.29C212.445 144.577 212.36 144.908 212.36 145.281C212.36 145.655 212.445 145.988 212.613 146.279C212.786 146.571 213.026 146.797 213.331 146.956C213.636 147.116 213.976 147.195 214.35 147.195C214.723 147.195 215.061 147.116 215.361 146.956C215.662 146.797 215.899 146.571 216.072 146.279C216.245 145.988 216.332 145.655 216.332 145.281C216.332 144.908 216.245 144.577 216.072 144.29C215.899 144.003 215.662 143.78 215.361 143.62C215.061 143.461 214.723 143.381 214.35 143.381ZM232.219 145.596H229.573V144.529H232.219V145.596ZM233.148 148.699H231.85V141.405H233.148V148.699ZM229.04 149.048C229.901 149.048 230.642 149.139 231.262 149.321C231.886 149.504 232.362 149.768 232.69 150.114C233.023 150.456 233.189 150.868 233.189 151.352C233.189 151.835 233.023 152.247 232.69 152.589C232.362 152.935 231.886 153.2 231.262 153.382C230.642 153.564 229.901 153.658 229.04 153.662C228.188 153.658 227.452 153.564 226.832 153.382C226.212 153.2 225.736 152.935 225.403 152.589C225.071 152.247 224.904 151.835 224.904 151.352C224.904 150.868 225.071 150.456 225.403 150.114C225.736 149.768 226.212 149.504 226.832 149.321C227.452 149.139 228.188 149.048 229.04 149.048ZM229.04 150.046C228.452 150.046 227.942 150.098 227.509 150.203C227.08 150.303 226.752 150.451 226.524 150.647C226.301 150.843 226.189 151.078 226.189 151.352C226.189 151.616 226.301 151.846 226.524 152.042C226.752 152.238 227.08 152.388 227.509 152.493C227.942 152.593 228.452 152.644 229.04 152.644C229.642 152.644 230.154 152.593 230.578 152.493C231.007 152.388 231.332 152.238 231.556 152.042C231.784 151.846 231.897 151.616 231.897 151.352C231.897 151.078 231.784 150.843 231.556 150.647C231.332 150.451 231.007 150.303 230.578 150.203C230.154 150.098 229.642 150.046 229.04 150.046ZM227.071 143.593C227.071 144.345 226.93 145.056 226.647 145.726C226.369 146.396 225.971 146.983 225.451 147.489C224.932 147.991 224.323 148.371 223.626 148.631L222.949 147.592C223.569 147.373 224.109 147.056 224.569 146.642C225.034 146.227 225.39 145.755 225.636 145.227C225.882 144.693 226.005 144.149 226.005 143.593V142.643H227.071V143.593ZM227.317 143.579C227.317 144.094 227.436 144.595 227.673 145.083C227.91 145.566 228.252 145.999 228.698 146.382C229.145 146.76 229.669 147.054 230.271 147.264L229.607 148.296C228.919 148.054 228.325 147.697 227.823 147.223C227.322 146.749 226.937 146.197 226.668 145.568C226.399 144.935 226.265 144.272 226.265 143.579V142.643H227.317V143.579ZM229.956 143.319H223.339V142.246H229.956V143.319ZM238.802 150.224H237.558V147.4H238.802V150.224ZM234.885 150.005C236.061 150.005 237.195 149.987 238.289 149.95C239.383 149.909 240.363 149.839 241.229 149.738L241.297 150.675C240.404 150.825 239.41 150.932 238.316 150.996C237.227 151.055 236.145 151.085 235.069 151.085L234.885 150.005ZM245.562 153.655H244.318V141.405H245.562V153.655ZM244.688 147.496H242.541V146.437H244.688V147.496ZM242.979 153.04H241.775V141.658H242.979V153.04ZM240.839 147.646H235.5V146.594H240.839V147.646ZM240.729 143.668H236.771V146.936H235.5V142.615H240.729V143.668ZM251.1 151.29H249.821V147.701H251.1V151.29ZM255.666 151.29H254.36V147.701H255.666V151.29ZM258.346 152.131H247.135V151.058H258.346V152.131ZM252.72 142.116C253.595 142.116 254.374 142.251 255.058 142.52C255.741 142.784 256.274 143.16 256.657 143.647C257.045 144.131 257.238 144.687 257.238 145.315C257.238 145.949 257.045 146.507 256.657 146.99C256.274 147.469 255.741 147.842 255.058 148.111C254.374 148.376 253.595 148.508 252.72 148.508C251.849 148.508 251.07 148.376 250.382 148.111C249.698 147.842 249.163 147.469 248.775 146.99C248.388 146.507 248.194 145.949 248.194 145.315C248.194 144.687 248.388 144.131 248.775 143.647C249.163 143.16 249.698 142.784 250.382 142.52C251.07 142.251 251.849 142.116 252.72 142.116ZM252.72 143.169C252.082 143.164 251.517 143.251 251.024 143.429C250.537 143.602 250.154 143.853 249.876 144.181C249.603 144.504 249.466 144.882 249.466 145.315C249.466 145.748 249.603 146.129 249.876 146.457C250.154 146.785 250.539 147.04 251.031 147.223C251.523 147.405 252.086 147.496 252.72 147.496C253.349 147.496 253.909 147.405 254.401 147.223C254.894 147.04 255.279 146.785 255.557 146.457C255.835 146.129 255.974 145.748 255.974 145.315C255.974 144.882 255.835 144.504 255.557 144.181C255.283 143.853 254.9 143.602 254.408 143.429C253.916 143.251 253.353 143.164 252.72 143.169ZM260.629 152.596C260.456 152.596 260.294 152.55 260.144 152.459C259.993 152.368 259.875 152.249 259.788 152.104C259.706 151.953 259.665 151.791 259.665 151.618C259.665 151.45 259.706 151.29 259.788 151.14C259.875 150.989 259.993 150.873 260.144 150.791C260.294 150.704 260.456 150.661 260.629 150.661C260.798 150.661 260.957 150.704 261.107 150.791C261.258 150.873 261.376 150.989 261.463 151.14C261.549 151.29 261.593 151.45 261.593 151.618C261.593 151.791 261.549 151.953 261.463 152.104C261.376 152.249 261.258 152.368 261.107 152.459C260.957 152.55 260.798 152.596 260.629 152.596Z" fill="#0B0033"/>
<path d="M10.9584 190.875L14.3334 194.25L23.3334 185.25" stroke="#D1D6DC" stroke-width="3" stroke-linecap="round" stroke-linejoin="round"/>
<path d="M23.3334 192V198.75C23.3334 199.347 23.0963 199.919 22.6744 200.341C22.2524 200.763 21.6801 201 21.0834 201H7.58337C6.98664 201 6.41434 200.763 5.99238 200.341C5.57043 199.919 5.33337 199.347 5.33337 198.75V185.25C5.33337 184.653 5.57043 184.081 5.99238 183.659C6.41434 183.237 6.98664 183 7.58337 183H17.7084" stroke="#D1D6DC" stroke-width="3" stroke-linecap="round" stroke-linejoin="round"/>
<path d="M45.8232 189.281H42.7812V188.208H45.8232V189.281ZM40.5322 187.62C40.5322 188.418 40.3955 189.165 40.1221 189.862C39.8486 190.56 39.4567 191.168 38.9463 191.688C38.4404 192.202 37.8343 192.599 37.1279 192.877L36.4307 191.831C37.055 191.603 37.5951 191.277 38.0508 190.854C38.5111 190.425 38.8643 189.933 39.1104 189.377C39.361 188.816 39.4863 188.231 39.4863 187.62V186.164H40.5322V187.62ZM40.7715 187.647C40.7715 188.208 40.89 188.748 41.127 189.268C41.3685 189.783 41.7126 190.241 42.1592 190.642C42.6058 191.038 43.1299 191.346 43.7314 191.564L43.0137 192.576C42.3483 192.312 41.7695 191.936 41.2773 191.448C40.7852 190.956 40.4046 190.384 40.1357 189.732C39.8714 189.081 39.7393 188.386 39.7393 187.647V186.164H40.7715V187.647ZM46.6641 194.552H45.3652V185.419H46.6641V194.552ZM46.9375 197.416H38.6592V196.343H46.9375V197.416ZM39.9717 196.862H38.6592V193.54H39.9717V196.862ZM58.6748 186.779H49.5762V185.774H58.6748V186.779ZM58.6201 189.883H49.6309V188.885H58.6201V189.883ZM52.6523 189.548H51.3604V186.157H52.6523V189.548ZM56.8906 189.548H55.5918V186.157H56.8906V189.548ZM59.7207 191.811H48.5508V190.778H59.7207V191.811ZM58.3057 195.563H51.1826V196.944H49.9043V194.647H57.0342V193.731H49.8838V192.774H58.3057V195.563ZM58.6611 197.539H49.9043V196.562H58.6611V197.539ZM66.2354 185.61C67.1559 185.61 67.9421 185.692 68.5938 185.856C69.2454 186.016 69.7422 186.253 70.084 186.567C70.4303 186.882 70.6035 187.262 70.6035 187.709C70.6035 188.165 70.4303 188.552 70.084 188.871C69.7422 189.186 69.2454 189.425 68.5938 189.589C67.9421 189.753 67.1559 189.84 66.2354 189.849C65.3148 189.84 64.5264 189.753 63.8701 189.589C63.2184 189.425 62.7171 189.186 62.3662 188.871C62.0199 188.552 61.8467 188.165 61.8467 187.709C61.8467 187.262 62.0199 186.882 62.3662 186.567C62.7171 186.253 63.2184 186.016 63.8701 185.856C64.5264 185.692 65.3148 185.61 66.2354 185.61ZM66.2354 186.574C65.5882 186.574 65.0368 186.618 64.5811 186.704C64.1299 186.791 63.7881 186.921 63.5557 187.094C63.3232 187.267 63.207 187.472 63.207 187.709C63.207 187.969 63.321 188.185 63.5488 188.358C63.7767 188.527 64.1162 188.655 64.5674 188.741C65.0186 188.828 65.5745 188.871 66.2354 188.871C66.8962 188.871 67.4521 188.828 67.9033 188.741C68.3545 188.655 68.694 188.525 68.9219 188.352C69.1543 188.174 69.2705 187.96 69.2705 187.709C69.2705 187.472 69.152 187.269 68.915 187.101C68.6826 186.932 68.3385 186.802 67.8828 186.711C67.4316 186.62 66.8825 186.574 66.2354 186.574ZM71.8203 191.633H60.6504V190.594H71.8203V191.633ZM70.4053 195.447H63.2822V196.808H62.0039V194.511H69.1338V193.547H61.9834V192.576H70.4053V195.447ZM70.7607 197.539H62.0039V196.534H70.7607V197.539ZM80.2012 187.606C80.2012 188.354 80.0622 189.058 79.7842 189.719C79.5107 190.375 79.1165 190.945 78.6016 191.428C78.0866 191.911 77.4759 192.278 76.7695 192.528L76.0791 191.523C76.7035 191.305 77.2458 190.995 77.7061 190.594C78.1709 190.193 78.5286 189.735 78.7793 189.22C79.0299 188.7 79.1553 188.162 79.1553 187.606V186.67H80.2012V187.606ZM80.4404 187.606C80.4404 188.131 80.5589 188.636 80.7959 189.124C81.0329 189.607 81.3724 190.038 81.8145 190.416C82.2611 190.794 82.7897 191.088 83.4004 191.298L82.7441 192.303C82.0514 192.061 81.4521 191.708 80.9463 191.243C80.4404 190.774 80.0531 190.229 79.7842 189.609C79.5199 188.985 79.3877 188.317 79.3877 187.606V186.67H80.4404V187.606ZM83.0928 187.271H76.4551V186.226H83.0928V187.271ZM85.793 192.795H84.501V185.405H85.793V192.795ZM87.5771 189.65H85.4307V188.557H87.5771V189.65ZM85.793 197.655H84.501V194.449H77.6992V193.403H85.793V197.655ZM92.3828 187.306C92.3828 188.103 92.2438 188.846 91.9658 189.534C91.6924 190.218 91.2959 190.815 90.7764 191.325C90.2568 191.831 89.6393 192.218 88.9238 192.487L88.2197 191.435C88.8623 191.216 89.4183 190.899 89.8877 190.484C90.3571 190.07 90.7148 189.589 90.9609 189.042C91.207 188.495 91.3301 187.916 91.3301 187.306V186.089H92.3828V187.306ZM92.6221 187.244C92.6221 187.814 92.7383 188.356 92.9707 188.871C93.2077 189.386 93.5495 189.837 93.9961 190.225C94.4427 190.607 94.9714 190.899 95.582 191.1L94.8643 192.111C94.1807 191.861 93.5928 191.498 93.1006 191.024C92.6084 190.55 92.2279 189.992 91.959 189.35C91.6947 188.702 91.5625 188.001 91.5625 187.244V186.089H92.6221V187.244ZM98.4805 192.638H97.1816V185.405H98.4805V192.638ZM94.3721 192.986C95.2334 192.986 95.974 193.077 96.5938 193.26C97.2181 193.438 97.6943 193.704 98.0225 194.06C98.3551 194.41 98.5215 194.832 98.5215 195.324C98.5215 195.807 98.3551 196.222 98.0225 196.568C97.6943 196.919 97.2181 197.186 96.5938 197.368C95.974 197.55 95.2334 197.642 94.3721 197.642C93.5199 197.642 92.7839 197.55 92.1641 197.368C91.5443 197.186 91.068 196.919 90.7354 196.568C90.4027 196.222 90.2363 195.807 90.2363 195.324C90.2363 194.832 90.4027 194.41 90.7354 194.06C91.068 193.704 91.5443 193.438 92.1641 193.26C92.7839 193.077 93.5199 192.986 94.3721 192.986ZM94.3721 193.998C93.7842 193.998 93.2738 194.05 92.8408 194.155C92.4124 194.256 92.0843 194.406 91.8564 194.606C91.6331 194.802 91.5215 195.042 91.5215 195.324C91.5215 195.589 91.6331 195.819 91.8564 196.015C92.0843 196.206 92.4124 196.354 92.8408 196.459C93.2738 196.564 93.7842 196.616 94.3721 196.616C94.9736 196.616 95.4863 196.564 95.9102 196.459C96.3385 196.354 96.6644 196.206 96.8877 196.015C97.1156 195.819 97.2295 195.589 97.2295 195.324C97.2295 195.042 97.1156 194.802 96.8877 194.606C96.6644 194.406 96.3385 194.256 95.9102 194.155C95.4863 194.05 94.9736 193.998 94.3721 193.998ZM97.4141 188.974H94.5977V187.907H97.4141V188.974ZM109.992 194.586H108.7V185.419H109.992V194.586ZM111.776 190.437H109.596V189.363H111.776V190.437ZM107.675 187.887H100.381V186.848H107.675V187.887ZM104.031 188.481C104.615 188.481 105.13 188.577 105.576 188.769C106.027 188.96 106.378 189.231 106.629 189.582C106.88 189.933 107.005 190.339 107.005 190.799C107.005 191.255 106.88 191.656 106.629 192.002C106.378 192.344 106.027 192.61 105.576 192.802C105.13 192.993 104.615 193.089 104.031 193.089C103.448 193.089 102.928 192.993 102.473 192.802C102.021 192.61 101.671 192.344 101.42 192.002C101.174 191.656 101.051 191.255 101.051 190.799C101.051 190.339 101.174 189.933 101.42 189.582C101.671 189.231 102.021 188.96 102.473 188.769C102.928 188.577 103.448 188.481 104.031 188.481ZM104.031 189.493C103.689 189.493 103.386 189.546 103.122 189.65C102.858 189.751 102.655 189.901 102.514 190.102C102.372 190.302 102.302 190.535 102.302 190.799C102.302 191.063 102.372 191.291 102.514 191.482C102.655 191.674 102.858 191.822 103.122 191.927C103.386 192.027 103.689 192.077 104.031 192.077C104.373 192.077 104.676 192.027 104.94 191.927C105.209 191.822 105.417 191.674 105.562 191.482C105.708 191.291 105.781 191.063 105.781 190.799C105.781 190.535 105.708 190.302 105.562 190.102C105.417 189.901 105.209 189.751 104.94 189.65C104.676 189.546 104.373 189.493 104.031 189.493ZM104.681 187.374H103.389V185.412H104.681V187.374ZM110.512 197.416H102.233V196.343H110.512V197.416ZM103.519 196.787H102.233V193.868H103.519V196.787ZM125.106 187.012H117.204V185.966H125.106V187.012ZM125.694 187.032C125.694 187.561 125.69 188.01 125.681 188.379C125.672 188.748 125.642 189.163 125.592 189.623C125.542 190.083 125.464 190.573 125.359 191.093L124.074 190.983C124.184 190.482 124.263 190.008 124.313 189.562C124.364 189.115 124.393 188.712 124.402 188.352C124.411 187.992 124.416 187.552 124.416 187.032V185.966H125.694V187.032ZM117.061 189.521L116.89 188.434L124.792 188.201V189.165L117.061 189.521ZM127.041 192.891H115.905V191.845H127.041V192.891ZM121.62 192.521H120.314V190.136H121.62V192.521ZM125.961 197.471H117.279V196.418H125.961V197.471ZM118.585 196.869H117.279V193.841H118.585V196.869ZM135.319 189.89H133.269V188.857H135.319V189.89ZM138.43 194.586H137.192V185.419H138.43V194.586ZM136.03 194.278H134.786V185.658H136.03V194.278ZM138.778 197.416H130.363V196.343H138.778V197.416ZM131.683 196.999H130.363V193.574H131.683V196.999ZM129.324 191.599C130.386 191.599 131.225 191.58 131.84 191.544C132.455 191.503 133.077 191.419 133.706 191.291L133.836 192.33C133.166 192.462 132.505 192.549 131.854 192.59C131.206 192.631 130.363 192.651 129.324 192.651H128.531V191.599H129.324ZM133.2 187.456H129.775V191.975H128.531V186.396H133.2V187.456ZM132.708 189.992H129.386V188.987H132.708V189.992ZM151.295 196.138H140.084V195.064H151.295V196.138ZM146.154 188.263C146.154 189.097 145.94 189.853 145.512 190.532C145.083 191.211 144.491 191.774 143.734 192.221C142.982 192.667 142.13 192.979 141.178 193.157L140.672 192.111C141.51 191.975 142.258 191.719 142.914 191.346C143.575 190.972 144.09 190.519 144.459 189.985C144.833 189.452 145.02 188.878 145.02 188.263V188.003H146.154V188.263ZM146.339 188.263C146.339 188.878 146.523 189.452 146.893 189.985C147.266 190.519 147.784 190.972 148.444 191.346C149.11 191.719 149.859 191.975 150.693 192.111L150.174 193.157C149.217 192.979 148.36 192.667 147.604 192.221C146.852 191.774 146.259 191.211 145.826 190.532C145.398 189.853 145.184 189.097 145.184 188.263V188.003H146.339V188.263ZM150.256 188.352H141.103V187.299H150.256V188.352ZM146.312 187.695H145.033V185.672H146.312V187.695ZM156.183 186.273C156.825 186.273 157.397 186.399 157.898 186.649C158.4 186.896 158.792 187.242 159.074 187.688C159.361 188.131 159.505 188.634 159.505 189.199C159.505 189.764 159.361 190.27 159.074 190.717C158.792 191.159 158.4 191.505 157.898 191.756C157.397 192.002 156.825 192.125 156.183 192.125C155.545 192.125 154.97 192.002 154.46 191.756C153.95 191.505 153.551 191.159 153.264 190.717C152.981 190.27 152.84 189.764 152.84 189.199C152.84 188.634 152.981 188.131 153.264 187.688C153.551 187.242 153.95 186.896 154.46 186.649C154.97 186.399 155.545 186.273 156.183 186.273ZM156.183 187.408C155.786 187.408 155.431 187.481 155.116 187.627C154.806 187.773 154.562 187.982 154.385 188.256C154.207 188.529 154.118 188.844 154.118 189.199C154.118 189.555 154.207 189.867 154.385 190.136C154.562 190.405 154.806 190.614 155.116 190.765C155.431 190.915 155.786 190.99 156.183 190.99C156.579 190.99 156.932 190.915 157.242 190.765C157.557 190.614 157.8 190.405 157.974 190.136C158.151 189.867 158.24 189.555 158.24 189.199C158.24 188.844 158.151 188.529 157.974 188.256C157.8 187.982 157.557 187.773 157.242 187.627C156.932 187.481 156.579 187.408 156.183 187.408ZM162.314 197.689H161.022V185.405H162.314V197.689ZM152.245 193.971C153.257 193.966 154.173 193.955 154.993 193.937C155.818 193.918 156.693 193.882 157.618 193.827C158.548 193.768 159.425 193.679 160.25 193.561L160.346 194.511C159.493 194.666 158.607 194.784 157.687 194.866C156.771 194.944 155.909 194.994 155.103 195.017C154.296 195.039 153.4 195.051 152.416 195.051L152.245 193.971ZM177.859 192.925H176.567V185.419H177.859V192.925ZM169.369 191.175C170.613 191.175 171.668 191.152 172.534 191.106C173.405 191.056 174.293 190.956 175.2 190.806L175.351 191.865C174.412 192.016 173.493 192.118 172.596 192.173C171.698 192.228 170.622 192.255 169.369 192.255H168.351V191.175H169.369ZM173.949 189.65H169.615V191.79H168.351V188.652H172.664V187.244H168.323V186.171H173.949V189.65ZM173.765 193.157C174.626 193.157 175.371 193.246 176 193.424C176.629 193.597 177.11 193.852 177.442 194.189C177.775 194.527 177.941 194.932 177.941 195.406C177.941 195.871 177.775 196.27 177.442 196.603C177.11 196.94 176.631 197.197 176.007 197.375C175.382 197.553 174.635 197.642 173.765 197.642C172.908 197.642 172.167 197.553 171.543 197.375C170.919 197.197 170.44 196.94 170.107 196.603C169.775 196.27 169.608 195.871 169.608 195.406C169.608 194.932 169.775 194.527 170.107 194.189C170.44 193.852 170.919 193.597 171.543 193.424C172.167 193.246 172.908 193.157 173.765 193.157ZM173.765 194.183C173.168 194.183 172.653 194.23 172.22 194.326C171.787 194.417 171.456 194.554 171.229 194.736C171.001 194.919 170.887 195.142 170.887 195.406C170.887 195.657 171.001 195.873 171.229 196.056C171.456 196.238 171.787 196.377 172.22 196.473C172.653 196.568 173.168 196.616 173.765 196.616C174.371 196.616 174.888 196.568 175.316 196.473C175.749 196.377 176.077 196.238 176.301 196.056C176.529 195.873 176.643 195.657 176.643 195.406C176.643 195.142 176.529 194.919 176.301 194.736C176.077 194.554 175.749 194.417 175.316 194.326C174.888 194.23 174.371 194.183 173.765 194.183ZM188.934 187.668H181.127V186.602H188.934V187.668ZM190.971 196.021H179.801V194.941H190.971V196.021ZM189.658 188.085C189.658 188.873 189.649 189.539 189.631 190.081C189.617 190.619 189.572 191.225 189.494 191.899C189.421 192.569 189.3 193.303 189.132 194.101L187.833 193.984C188.002 193.246 188.125 192.547 188.202 191.886C188.284 191.22 188.337 190.623 188.359 190.095C188.382 189.566 188.394 188.896 188.394 188.085V186.602H189.658V188.085ZM180.956 191.359L180.785 190.3L188.694 189.992V190.949L180.956 191.359ZM203.098 192.029H191.887V191.031H203.098V192.029ZM201.717 195.584H194.525V196.91H193.227V194.723H200.432V193.82H193.213V192.877H201.717V195.584ZM202.1 197.512H193.227V196.596H202.1V197.512ZM201.683 188.379H194.614V189.616H193.329V187.518H200.384V186.643H193.295V185.727H201.683V188.379ZM201.901 190.225H193.329V189.315H201.901V190.225ZM217.043 191.92H215.751V185.405H217.043V191.92ZM218.827 189.227H216.681V188.167H218.827V189.227ZM213.734 186.26C213.734 187.285 213.509 188.194 213.058 188.987C212.611 189.776 211.957 190.434 211.096 190.963C210.239 191.492 209.198 191.888 207.972 192.152L207.425 191.106C208.5 190.888 209.4 190.578 210.125 190.177C210.854 189.771 211.399 189.299 211.759 188.762C212.123 188.219 212.306 187.632 212.306 186.998V186.26H213.734ZM213.064 187.306H207.979V186.26H213.064V187.306ZM217.091 193.417H210.48V197.02H209.175V192.446H217.091V193.417ZM217.378 197.505H209.175V196.514H217.378V197.505ZM216.961 195.427H210.043V194.463H216.961V195.427ZM229.669 197.689H228.363V185.405H229.669V197.689ZM223.106 186.328C223.717 186.328 224.262 186.506 224.74 186.861C225.219 187.217 225.592 187.718 225.861 188.365C226.13 189.012 226.265 189.767 226.265 190.628C226.265 191.494 226.13 192.25 225.861 192.897C225.592 193.545 225.219 194.046 224.74 194.401C224.262 194.752 223.717 194.928 223.106 194.928C222.496 194.928 221.949 194.752 221.466 194.401C220.987 194.046 220.614 193.545 220.345 192.897C220.076 192.25 219.941 191.494 219.941 190.628C219.941 189.767 220.076 189.012 220.345 188.365C220.614 187.718 220.987 187.217 221.466 186.861C221.949 186.506 222.496 186.328 223.106 186.328ZM223.106 187.49C222.733 187.49 222.4 187.618 222.108 187.873C221.817 188.128 221.591 188.493 221.432 188.967C221.277 189.436 221.199 189.99 221.199 190.628C221.199 191.261 221.277 191.815 221.432 192.289C221.591 192.763 221.817 193.128 222.108 193.383C222.4 193.633 222.733 193.759 223.106 193.759C223.48 193.759 223.811 193.633 224.098 193.383C224.389 193.128 224.615 192.763 224.774 192.289C224.934 191.815 225.014 191.261 225.014 190.628C225.014 189.99 224.934 189.436 224.774 188.967C224.615 188.493 224.392 188.128 224.104 187.873C223.817 187.618 223.485 187.49 223.106 187.49ZM245.193 191.988H243.901V185.405H245.193V191.988ZM238.46 193.943H243.908V192.576H245.193V197.505H237.175V192.576H238.46V193.943ZM243.908 196.452V194.969H238.46V196.452H243.908ZM238.549 185.979C239.169 185.97 239.725 186.087 240.217 186.328C240.714 186.565 241.103 186.902 241.386 187.34C241.668 187.773 241.81 188.267 241.81 188.823C241.81 189.366 241.668 189.853 241.386 190.286C241.103 190.715 240.714 191.049 240.217 191.291C239.725 191.533 239.169 191.653 238.549 191.653C237.929 191.653 237.371 191.533 236.874 191.291C236.382 191.049 235.994 190.715 235.712 190.286C235.429 189.853 235.288 189.366 235.288 188.823C235.288 188.267 235.429 187.773 235.712 187.34C235.994 186.902 236.382 186.565 236.874 186.328C237.371 186.087 237.929 185.97 238.549 185.979ZM238.549 187.066C238.166 187.057 237.822 187.128 237.517 187.278C237.216 187.429 236.981 187.638 236.812 187.907C236.644 188.172 236.56 188.477 236.56 188.823C236.56 189.165 236.644 189.47 236.812 189.739C236.981 190.004 237.216 190.211 237.517 190.361C237.822 190.512 238.166 190.587 238.549 190.587C238.932 190.587 239.273 190.512 239.574 190.361C239.875 190.211 240.11 190.004 240.278 189.739C240.447 189.47 240.531 189.165 240.531 188.823C240.531 188.477 240.445 188.172 240.271 187.907C240.103 187.638 239.868 187.429 239.567 187.278C239.271 187.128 238.932 187.057 238.549 187.066ZM248.529 191.414C249.833 191.414 250.831 191.396 251.523 191.359C252.221 191.323 252.911 191.241 253.595 191.113L253.725 192.173C253.014 192.291 252.294 192.369 251.564 192.405C250.84 192.442 249.828 192.46 248.529 192.46H247.641V191.414H248.529ZM252.973 189.712H248.933V192.063H247.641V188.734H251.681V187.183H247.62V186.15H252.973V189.712ZM257.348 192.952H256.049V185.419H257.348V192.952ZM256.329 188.242H253.752V187.196H256.329V188.242ZM256.329 190.812H253.752V189.753H256.329V190.812ZM257.348 197.676H256.049V194.62H249.028V193.574H257.348V197.676ZM265.284 188.488H259.207V187.442H265.284V188.488ZM262.256 189.22C262.771 189.22 263.229 189.34 263.63 189.582C264.035 189.819 264.352 190.152 264.58 190.58C264.808 191.008 264.922 191.498 264.922 192.05C264.922 192.597 264.808 193.087 264.58 193.52C264.352 193.948 264.035 194.285 263.63 194.531C263.229 194.777 262.771 194.9 262.256 194.9C261.745 194.9 261.287 194.777 260.882 194.531C260.481 194.285 260.166 193.946 259.938 193.513C259.715 193.08 259.604 192.592 259.604 192.05C259.604 191.507 259.715 191.02 259.938 190.587C260.166 190.154 260.481 189.819 260.882 189.582C261.287 189.34 261.745 189.22 262.256 189.22ZM262.256 190.307C261.969 190.307 261.709 190.382 261.477 190.532C261.249 190.678 261.071 190.883 260.943 191.147C260.816 191.407 260.752 191.708 260.752 192.05C260.752 192.387 260.816 192.688 260.943 192.952C261.076 193.216 261.256 193.419 261.483 193.561C261.711 193.702 261.969 193.772 262.256 193.772C262.548 193.772 262.807 193.702 263.035 193.561C263.268 193.419 263.45 193.216 263.582 192.952C263.714 192.688 263.78 192.387 263.78 192.05C263.78 191.708 263.714 191.407 263.582 191.147C263.45 190.883 263.268 190.678 263.035 190.532C262.807 190.382 262.548 190.307 262.256 190.307ZM269.721 197.655H268.483V185.405H269.721V197.655ZM268.894 191.571H266.651V190.512H268.894V191.571ZM267.075 197.081H265.852V185.692H267.075V197.081ZM262.905 188.092H261.62V185.768H262.905V188.092ZM277.315 187.142C277.315 187.848 277.097 188.497 276.659 189.09C276.222 189.682 275.636 190.177 274.902 190.573C274.169 190.97 273.353 191.239 272.455 191.38L271.956 190.361C272.722 190.252 273.428 190.038 274.075 189.719C274.722 189.4 275.235 189.015 275.613 188.563C275.992 188.112 276.181 187.638 276.181 187.142V186.67H277.315V187.142ZM277.657 187.142C277.657 187.638 277.844 188.112 278.218 188.563C278.596 189.015 279.109 189.4 279.756 189.719C280.408 190.038 281.116 190.252 281.882 190.361L281.41 191.38C280.508 191.239 279.685 190.972 278.942 190.58C278.204 190.188 277.616 189.694 277.179 189.097C276.746 188.5 276.529 187.848 276.529 187.142V186.67H277.657V187.142ZM277.534 197.662H276.256V193.034H277.534V197.662ZM282.504 193.376H271.334V192.316H282.504V193.376ZM281.458 187.176H272.366V186.137H281.458V187.176ZM290.598 190.799H288.301V189.712H290.598V190.799ZM286.927 188.81C286.927 189.689 286.815 190.539 286.592 191.359C286.373 192.18 286.049 192.913 285.621 193.561C285.193 194.203 284.678 194.709 284.076 195.078L283.263 194.107C283.823 193.77 284.304 193.321 284.705 192.761C285.106 192.196 285.407 191.574 285.607 190.895C285.812 190.215 285.915 189.521 285.915 188.81V186.526H286.927V188.81ZM287.166 188.755C287.166 189.434 287.259 190.097 287.446 190.744C287.633 191.387 287.911 191.977 288.28 192.515C288.654 193.052 289.103 193.483 289.627 193.807L288.902 194.805C288.31 194.449 287.811 193.955 287.405 193.321C287 192.683 286.694 191.975 286.489 191.195C286.289 190.416 286.188 189.603 286.188 188.755V186.526H287.166V188.755ZM293.975 197.655H292.724V185.405H293.975V197.655ZM291.432 197.054H290.208V185.638H291.432V197.054ZM299.498 195.29H298.22V191.701H299.498V195.29ZM304.064 195.29H302.759V191.701H304.064V195.29ZM306.744 196.131H295.533V195.058H306.744V196.131ZM301.118 186.116C301.993 186.116 302.772 186.251 303.456 186.52C304.14 186.784 304.673 187.16 305.056 187.647C305.443 188.131 305.637 188.687 305.637 189.315C305.637 189.949 305.443 190.507 305.056 190.99C304.673 191.469 304.14 191.842 303.456 192.111C302.772 192.376 301.993 192.508 301.118 192.508C300.248 192.508 299.468 192.376 298.78 192.111C298.097 191.842 297.561 191.469 297.174 190.99C296.786 190.507 296.593 189.949 296.593 189.315C296.593 188.687 296.786 188.131 297.174 187.647C297.561 187.16 298.097 186.784 298.78 186.52C299.468 186.251 300.248 186.116 301.118 186.116ZM301.118 187.169C300.48 187.164 299.915 187.251 299.423 187.429C298.935 187.602 298.552 187.853 298.274 188.181C298.001 188.504 297.864 188.882 297.864 189.315C297.864 189.748 298.001 190.129 298.274 190.457C298.552 190.785 298.938 191.04 299.43 191.223C299.922 191.405 300.485 191.496 301.118 191.496C301.747 191.496 302.308 191.405 302.8 191.223C303.292 191.04 303.677 190.785 303.955 190.457C304.233 190.129 304.372 189.748 304.372 189.315C304.372 188.882 304.233 188.504 303.955 188.181C303.682 187.853 303.299 187.602 302.807 187.429C302.314 187.251 301.752 187.164 301.118 187.169ZM309.027 196.596C308.854 196.596 308.692 196.55 308.542 196.459C308.392 196.368 308.273 196.249 308.187 196.104C308.104 195.953 308.063 195.791 308.063 195.618C308.063 195.45 308.104 195.29 308.187 195.14C308.273 194.989 308.392 194.873 308.542 194.791C308.692 194.704 308.854 194.661 309.027 194.661C309.196 194.661 309.355 194.704 309.506 194.791C309.656 194.873 309.775 194.989 309.861 195.14C309.948 195.29 309.991 195.45 309.991 195.618C309.991 195.791 309.948 195.953 309.861 196.104C309.775 196.249 309.656 196.368 309.506 196.459C309.355 196.55 309.196 196.596 309.027 196.596Z" fill="#0B0033"/>
</svg>
