<svg width="22" height="22" viewBox="0 0 22 22" fill="none" xmlns="http://www.w3.org/2000/svg">
<path d="M8 3H14C15.1046 3 16 3.89543 16 5V15H6V5C6 3.89543 6.89543 3 8 3Z" stroke="#D1D6DC" stroke-width="2"/>
<path d="M11.5 2.5H14C15.3807 2.5 16.5 3.61929 16.5 5V15.5H11.5V2.5Z" fill="#D1D6DC" stroke="#D1D6DC"/>
<path d="M4 17.5H18C18.2761 17.5 18.5 17.7239 18.5 18C18.5 18.2761 18.2761 18.5 18 18.5H4C3.72386 18.5 3.5 18.2761 3.5 18C3.5 17.7239 3.72386 17.5 4 17.5Z" fill="#D1D6DC" stroke="#D1D6DC"/>
</svg>
