<svg width="24" height="24" viewBox="0 0 24 24" fill="none" xmlns="http://www.w3.org/2000/svg">
<path d="M19 12C19 16.938 17.2895 21.5794 11.4737 20.9409C8.47135 20.6113 6 16.938 6 12C6 7.06209 8.47137 3.38888 11.4737 3.05911C17.2895 2.42031 19 7.06209 19 12Z" fill="#C6A600"/>
<ellipse cx="11.5" cy="12" rx="5.5" ry="9" fill="#FFE143"/>
<path d="M11.5519 17C11.4889 17 11.4357 16.9614 11.3923 16.8841C11.349 16.8068 11.3273 16.712 11.3273 16.5996V15.5775L11.4396 15.7671C11.1638 15.7601 10.9136 15.6934 10.689 15.5669C10.4644 15.4405 10.2772 15.2824 10.1275 15.0927C10.0763 15.0295 10.0408 14.9557 10.0211 14.8714C10.0014 14.7801 9.9955 14.6923 10.0034 14.608C10.0113 14.5167 10.031 14.4394 10.0625 14.3762C10.0979 14.313 10.1393 14.2743 10.1866 14.2603C10.2339 14.2462 10.2891 14.2743 10.3521 14.3446C10.4782 14.4991 10.6319 14.6361 10.8131 14.7555C10.9983 14.8679 11.2269 14.9241 11.4987 14.9241C11.7155 14.9241 11.8947 14.875 12.0366 14.7766C12.1784 14.6712 12.2829 14.5272 12.3498 14.3446C12.4208 14.1619 12.4562 13.9547 12.4562 13.7229C12.4562 13.5262 12.4306 13.3576 12.3794 13.2171C12.3321 13.0766 12.2553 12.9571 12.1489 12.8588C12.0425 12.7604 11.9006 12.6797 11.7233 12.6164L11.1205 12.3846C10.7658 12.2441 10.4999 12.0158 10.3225 11.6997C10.1492 11.3765 10.0625 10.9515 10.0625 10.4247C10.0625 10.0172 10.1176 9.65191 10.228 9.32877C10.3422 9.00562 10.4999 8.74921 10.7008 8.55954C10.9057 8.36986 11.1421 8.26449 11.4101 8.24341L11.3273 8.39094V7.40042C11.3273 7.28802 11.349 7.19319 11.3923 7.11591C11.4357 7.03864 11.4889 7 11.5519 7C11.615 7 11.6682 7.03864 11.7115 7.11591C11.7549 7.19319 11.7765 7.28802 11.7765 7.40042V8.39094L11.682 8.24341C11.8672 8.25044 12.0622 8.32069 12.2671 8.45416C12.472 8.58061 12.6473 8.75975 12.7931 8.99157C12.8365 9.05479 12.8641 9.12856 12.8759 9.21286C12.8916 9.29715 12.8916 9.37794 12.8759 9.45522C12.8641 9.53249 12.8404 9.59572 12.805 9.64489C12.7734 9.69406 12.7321 9.72216 12.6808 9.72919C12.6335 9.72919 12.5804 9.69406 12.5212 9.62381C12.3912 9.45522 12.2474 9.32174 12.0898 9.22339C11.9361 9.12504 11.7509 9.07587 11.5342 9.07587C11.2505 9.07587 11.0239 9.19881 10.8545 9.44468C10.689 9.68353 10.6062 9.99965 10.6062 10.393C10.6062 10.7021 10.6575 10.948 10.7599 11.1307C10.8663 11.3063 11.0377 11.4398 11.2741 11.5311L11.8888 11.7734C12.2671 11.9139 12.5469 12.1387 12.7281 12.4478C12.9094 12.7499 13 13.1574 13 13.6702C13 14.0706 12.9429 14.4218 12.8286 14.7239C12.7183 15.026 12.5626 15.2648 12.3617 15.4405C12.1646 15.6161 11.9361 15.7215 11.676 15.7566L11.7765 15.5669V16.5996C11.7765 16.712 11.7549 16.8068 11.7115 16.8841C11.6721 16.9614 11.6189 17 11.5519 17Z" fill="#D0B72F"/>
</svg>
